<svg xmlns="http://www.w3.org/2000/svg" width="16" height="16" viewBox="0 0 16 16" fill="none">
    <path d="M8.41699 0.394531C9.10547 0.394531 9.76953 0.482422 10.4092 0.658203C11.0488 0.833984 11.6445 1.08789 12.1963 1.41992C12.748 1.75195 13.2534 2.14258 13.7124 2.5918C14.1714 3.04102 14.5645 3.54639 14.8916 4.10791C15.2188 4.66943 15.4702 5.26758 15.646 5.90234C15.8218 6.53711 15.9121 7.20117 15.917 7.89453C15.917 8.58301 15.8291 9.24707 15.6533 9.88672C15.4775 10.5264 15.2236 11.1221 14.8916 11.6738C14.5596 12.2256 14.1689 12.731 13.7197 13.1899C13.2705 13.6489 12.7651 14.042 12.2036 14.3691C11.6421 14.6963 11.0439 14.9478 10.4092 15.1235C9.77441 15.2993 9.11035 15.3896 8.41699 15.3945C7.72852 15.3945 7.06445 15.3066 6.4248 15.1309C5.78516 14.9551 5.18945 14.7012 4.6377 14.3691C4.08594 14.0371 3.58057 13.6465 3.12158 13.1973C2.6626 12.748 2.26953 12.2427 1.94238 11.6812C1.61523 11.1196 1.36377 10.5215 1.18799 9.88672C1.01221 9.25195 0.921875 8.58789 0.916992 7.89453C0.916992 7.20605 1.00488 6.54199 1.18066 5.90234C1.35645 5.2627 1.61035 4.66699 1.94238 4.11523C2.27441 3.56348 2.66504 3.05811 3.11426 2.59912C3.56348 2.14014 4.06885 1.74707 4.63037 1.41992C5.19189 1.09277 5.79004 0.841309 6.4248 0.665527C7.05957 0.489746 7.72363 0.399414 8.41699 0.394531ZM9.24463 7.89453L11.7495 5.38965L10.9219 4.56201L8.41699 7.06689L5.91211 4.56201L5.08447 5.38965L7.58936 7.89453L5.08447 10.3994L5.91211 11.2271L8.41699 8.72217L10.9219 11.2271L11.7495 10.3994L9.24463 7.89453Z" fill="#B91C1C"/>
  </svg>