<svg width="500" height="501" viewBox="0 0 500 501" fill="none" xmlns="http://www.w3.org/2000/svg">
<path d="M467.648 0.5H250.739V487.888H467.648V0.5Z" fill="#455A64"/>
<path d="M250.739 1.45093C252.682 3.1705 254.498 5.04214 256.171 7.04967C257.976 8.92399 259.647 10.9343 261.171 13.0645C259.221 11.3521 257.404 9.47991 255.739 7.46572C253.923 5.60211 252.251 3.59088 250.739 1.45093Z" fill="#263238"/>
<path d="M467.637 0.5C466.121 2.79242 464.442 4.962 462.614 6.99027C460.941 9.1562 459.114 11.1867 457.148 13.0645C458.669 10.7799 460.348 8.61469 462.171 6.58611C463.849 4.42153 465.676 2.38747 467.637 0.5Z" fill="#263238"/>
<path d="M467.636 487.9C465.687 486.183 463.863 484.316 462.182 482.313C460.362 480.468 458.679 478.481 457.147 476.369C460.926 479.942 464.433 483.817 467.636 487.959V487.9Z" fill="#263238"/>
<path d="M261.17 476.263C259.648 478.412 257.969 480.435 256.148 482.313C254.468 484.328 252.648 486.211 250.705 487.948C253.89 483.768 257.39 479.86 261.17 476.263Z" fill="#263238"/>
<path d="M457.148 13.4092H261.17V476.643H457.148V13.4092Z" fill="#FAFAFA"/>
<path d="M261.17 330.029L429.705 335.521L437.92 476.31L260.92 476.536L261.17 330.029Z" fill="#E0E0E0"/>
<path d="M327.091 70.6804H261.17V88.594H327.091V70.6804Z" fill="#E0E0E0"/>
<path d="M457.148 476.643C457.148 473.897 457.034 282.743 456.864 13.4092L457.148 13.7063H261.17L261.466 13.3973V13.6112C261.341 193.817 261.227 357.358 261.136 476.869L260.92 476.643H457.148L260.92 477.106H260.716V476.881C260.716 357.369 260.807 193.829 260.875 13.6231V13.1001H457.466V13.3973C457.261 282.743 457.148 473.885 457.148 476.643Z" fill="#263238"/>
<path d="M288.5 487.305H260.92V499.787H288.5V487.305Z" fill="#263238"/>
<path d="M461.864 487.9H434.284V499.787H461.864V487.9Z" fill="#263238"/>
<path d="M370.795 174.81C370.339 174.756 369.89 174.653 369.454 174.501L365.841 173.502C362.795 172.682 358.557 171.66 353.818 170.828C349.079 169.996 344.727 169.532 341.613 169.271L337.886 168.985C337.428 168.975 336.971 168.92 336.522 168.819C336.976 168.733 337.438 168.705 337.897 168.736C338.784 168.736 340.057 168.736 341.636 168.831C345.753 169.047 349.854 169.511 353.92 170.222C357.968 170.949 361.971 171.926 365.909 173.146C367.42 173.609 368.647 174.013 369.477 174.334C369.934 174.434 370.377 174.594 370.795 174.81Z" fill="#FAFAFA"/>
<path d="M379.375 173.823C376.643 174.346 373.853 174.458 371.091 174.156C372.442 173.801 373.834 173.641 375.227 173.681C376.609 173.517 378.006 173.565 379.375 173.823Z" fill="#FAFAFA"/>
<path d="M381.068 159.381C381.068 159.381 380.921 159.464 380.636 159.571C380.352 159.678 379.909 159.856 379.341 160.011C377.732 160.47 376.084 160.769 374.421 160.902C370.205 161.342 364.352 160.7 358.091 159.238C352.803 157.843 347.447 156.748 342.046 155.957C340.408 155.762 338.762 155.659 337.114 155.648C336.505 155.691 335.893 155.691 335.284 155.648C335.434 155.593 335.591 155.565 335.75 155.565C336.057 155.565 336.511 155.47 337.102 155.446C338.766 155.37 340.433 155.41 342.091 155.565C347.53 156.229 352.92 157.27 358.227 158.679C363.515 160.066 368.96 160.682 374.409 160.51C376.053 160.419 377.687 160.188 379.296 159.82C379.878 159.637 380.47 159.49 381.068 159.381Z" fill="#FAFAFA"/>
<path d="M378.761 124.897L349.841 123.435L338.955 125.158L343.602 143.333L364.773 160.783C364.773 160.783 374.898 161.057 378.568 154.471C382.239 147.886 385.807 125.313 385.807 125.313L378.761 124.897Z" fill="#FFBE9D"/>
<path d="M325.898 93.6222C327.034 92.4335 327.648 90.8288 328.67 89.5569C329.344 88.7911 330.156 88.1726 331.059 87.7368C331.963 87.3011 332.94 87.0568 333.934 87.0181C334.928 86.9795 335.92 87.1471 336.852 87.5115C337.784 87.8758 338.637 88.4296 339.363 89.1409L339.852 91.2686C341.722 94.5946 342.923 98.2845 343.382 102.113C343.841 105.941 343.549 109.827 342.523 113.533C337.414 111.7 332.406 109.573 327.523 107.161C326.3 106.625 325.154 105.917 324.113 105.057C321.42 102.68 320.704 98.6623 320.057 94.9892C321.056 95.3442 322.13 95.4045 323.161 95.1634C324.191 94.9222 325.138 94.389 325.898 93.6222Z" fill="#263238"/>
<path d="M341.068 86.1455C342.261 85.9791 343.182 87.1559 343.841 88.2019L345.886 98.5079C345.553 99.0222 345.055 99.3948 344.481 99.5583C343.908 99.7218 343.298 99.6654 342.761 99.3994C341.691 98.8293 340.844 97.8881 340.364 96.7367C339.203 94.3763 338.763 91.7002 339.102 89.0697C339.273 87.7978 339.852 86.3713 341.068 86.1455Z" fill="#C85C8E"/>
<path d="M393.705 55.168C403.353 53.492 411.546 67.7325 405.943 81.6283C401.728 92.077 402.432 103.179 393.875 110.157C393.352 110.659 392.714 111.011 392.023 111.179C389.989 111.488 388.796 108.897 388.273 106.817C384.546 91.9819 380.796 76.9568 380.603 61.6464L393.705 55.168Z" fill="#263238"/>
<path d="M357.727 61.6108L358.511 56.9392L386.25 57.1532C394.659 57.9496 401.932 68.4339 400.818 77.1945C399.58 86.9299 398.33 99.9342 395.875 106.912C390.955 120.867 379.398 121.961 379.398 121.961L378.193 127.524C377.872 129.685 377.147 131.758 376.059 133.626C374.971 135.493 373.542 137.118 371.853 138.408C370.165 139.697 368.25 140.626 366.218 141.141C364.186 141.655 362.077 141.746 360.011 141.408C357.9 141.066 355.877 140.283 354.062 139.105C352.246 137.928 350.676 136.38 349.445 134.554C348.213 132.728 347.346 130.661 346.895 128.477C346.444 126.293 346.418 124.037 346.818 121.842L357.727 61.6108Z" fill="#FFBE9D"/>
<path d="M392.887 87.6433C392.801 88.1263 392.537 88.5549 392.153 88.8371C391.768 89.1194 391.293 89.2327 390.83 89.1529C390.601 89.1251 390.38 89.0498 390.18 88.9314C389.979 88.813 389.803 88.6539 389.663 88.4634C389.522 88.2729 389.419 88.0549 389.36 87.8222C389.301 87.5895 389.287 87.3468 389.318 87.1083C389.407 86.6267 389.671 86.2 390.055 85.9183C390.439 85.6366 390.912 85.522 391.375 85.5987C391.604 85.6265 391.825 85.7018 392.025 85.8202C392.226 85.9386 392.401 86.0977 392.542 86.2882C392.683 86.4787 392.786 86.6967 392.845 86.9294C392.904 87.1621 392.918 87.4048 392.887 87.6433Z" fill="#263238"/>
<path d="M396.739 82.7218C396.477 82.912 395.33 81.6045 393.432 81.2122C391.534 80.8199 389.943 81.5331 389.784 81.2122C389.705 81.0933 390.012 80.701 390.705 80.3682C391.64 79.9349 392.681 79.8185 393.682 80.0354C394.673 80.2412 395.576 80.7696 396.262 81.545C396.75 82.1513 396.875 82.6267 396.739 82.7218Z" fill="#263238"/>
<path d="M374.591 84.3148C374.502 84.7972 374.239 85.2249 373.855 85.5085C373.472 85.7922 372.999 85.9096 372.534 85.8363C372.306 85.807 372.086 85.7307 371.886 85.6118C371.687 85.4929 371.512 85.3338 371.371 85.1437C371.231 84.9536 371.127 84.7362 371.068 84.5042C371.008 84.2721 370.993 84.03 371.023 83.7918C371.109 83.308 371.372 82.8783 371.756 82.5942C372.14 82.3101 372.615 82.1938 373.08 82.2702C373.308 82.2996 373.528 82.3759 373.728 82.4947C373.927 82.6136 374.102 82.7727 374.243 82.9628C374.384 83.1529 374.487 83.3703 374.546 83.6024C374.606 83.8344 374.621 84.0766 374.591 84.3148Z" fill="#263238"/>
<path d="M377.977 79.239C377.704 79.4292 376.557 78.1216 374.659 77.7294C372.761 77.3371 371.17 78.0503 371.011 77.7294C370.852 77.4084 371.238 77.2063 371.932 76.8735C372.868 76.4457 373.909 76.3335 374.909 76.5526C375.898 76.7543 376.801 77.2786 377.488 78.0503C377.988 78.6565 378.102 79.132 377.977 79.239Z" fill="#263238"/>
<path d="M382.08 95.4053C383.146 95.2826 384.223 95.3026 385.284 95.4647C385.773 95.4647 386.261 95.4647 386.42 95.1676C386.573 94.6566 386.573 94.1094 386.42 93.5985C386.193 92.279 385.966 90.8883 385.716 89.4381C384.761 83.4946 384.182 78.6804 384.409 78.6447C384.636 78.6091 385.545 83.3995 386.545 89.343C386.773 90.8051 386.977 92.1958 387.182 93.5272C387.376 94.2023 387.332 94.928 387.057 95.5717C386.95 95.7345 386.81 95.8703 386.647 95.969C386.484 96.0678 386.302 96.127 386.114 96.1423C385.835 96.1805 385.552 96.1805 385.273 96.1423C384.184 96.0326 383.112 95.7852 382.08 95.4053Z" fill="#263238"/>
<path d="M379.398 121.937C379.398 121.937 368.284 122.08 360.193 114.401C360.193 114.401 364.091 123.91 378.602 125.61L379.398 121.937Z" fill="#EB996E"/>
<path d="M375.602 97.9966C376.207 97.6418 376.873 97.417 377.562 97.3354C378.251 97.2537 378.949 97.3169 379.614 97.5211C379.924 97.6073 380.217 97.7523 380.478 97.949C380.788 98.2408 381.004 98.6264 381.096 99.0524C381.187 99.4784 381.15 99.9236 380.989 100.326C380.823 100.723 380.582 101.081 380.282 101.379C379.981 101.677 379.627 101.909 379.239 102.062C378.42 102.439 377.495 102.481 376.648 102.181C376.232 102.026 375.859 101.765 375.565 101.42C375.271 101.075 375.065 100.658 374.966 100.208C374.871 99.7476 374.92 99.2679 375.107 98.8397C375.293 98.4114 375.606 98.0573 376 97.8301" fill="#EB996E"/>
<path d="M380.125 103.322C379.807 103.322 379.705 101.158 377.853 99.6845C376 98.2105 373.75 98.579 373.728 98.2699C373.728 98.1392 374.205 97.8183 375.148 97.7469C376.368 97.6689 377.575 98.0436 378.557 98.8049C379.51 99.5412 380.15 100.637 380.341 101.86C380.478 102.775 380.273 103.322 380.125 103.322Z" fill="#263238"/>
<path d="M369.409 73.1529C369.523 72.5823 371.466 72.5347 373.682 71.9642C375.898 71.3936 377.625 70.407 377.989 70.8468C378.159 71.0608 377.909 71.6313 377.25 72.2732C376.363 73.0727 375.314 73.65 374.181 73.9611C373.049 74.2721 371.864 74.3087 370.716 74.0681C369.841 73.7829 369.318 73.4262 369.409 73.1529Z" fill="#263238"/>
<path d="M391.773 74.2347C392.329 74.0207 393.523 75.1857 395.182 76.0891C396.841 76.9925 398.42 77.4561 398.591 78.0623C398.591 78.3476 398.216 78.6329 397.398 78.7042C396.309 78.7318 395.234 78.4526 394.284 77.8959C393.317 77.3773 392.503 76.5923 391.932 75.6255C391.511 74.8885 391.523 74.3536 391.773 74.2347Z" fill="#263238"/>
<path d="M395.784 55.1323C393.739 60.4339 388.057 62.9182 382.921 64.8677C377.318 67.0074 371.318 69.1708 365.5 67.8038C365.205 73.0102 364.841 78.502 362.171 82.8883C360.693 85.3489 357.705 87.4648 357.102 90.3057C356.023 95.3696 348.83 108.136 348.852 110.514C347.852 107.72 344.307 101.753 343.262 96.9149C340.012 81.3786 343.932 65.8781 349.398 57.165C352.148 52.8005 355.932 49.2552 360.38 46.8742C364.829 44.4933 369.791 43.3578 374.784 43.5782C377.425 43.8174 380.044 44.2785 382.614 44.9571C385.645 45.5255 388.557 46.6481 391.216 48.2735C392.54 49.0975 393.654 50.2428 394.465 51.6125C395.276 52.9822 395.76 54.5361 395.875 56.1427" fill="#263238"/>
<path d="M342.432 78.5851C342.402 78.3444 342.402 78.1007 342.432 77.86C342.472 77.1695 342.555 76.4825 342.682 75.8035C343.135 73.2898 343.899 70.8483 344.954 68.5406C346.47 65.075 348.477 61.8689 350.909 59.0311C353.826 55.4917 357.465 52.681 361.557 50.8053C365.715 49.0664 370.219 48.4255 374.67 48.9391C378.293 49.3308 381.816 50.4103 385.068 52.1248C387.255 53.2721 389.278 54.7324 391.079 56.4635C391.572 56.9265 392.039 57.4187 392.477 57.9375C392.784 58.2822 392.943 58.4724 392.92 58.4962C392.898 58.5199 392.25 57.8424 390.909 56.6537C389.07 55.0145 387.039 53.6283 384.864 52.5289C381.651 50.8993 378.189 49.8772 374.636 49.5096C370.278 49.045 365.876 49.6893 361.807 51.3878C357.793 53.2303 354.216 55.9736 351.33 59.4234C348.924 62.1995 346.911 65.3218 345.352 68.6952C344.283 70.9649 343.475 73.3589 342.943 75.8273C342.58 77.5985 342.489 78.597 342.432 78.5851Z" fill="#455A64"/>
<path d="M342.432 78.5853C342.432 78.4783 343.863 78.4427 346.125 78.0623C352.054 77.0632 357.607 74.3826 362.182 70.312C363.932 68.7548 364.886 67.6375 364.966 67.7088C365.045 67.7801 364.784 68.0416 364.363 68.5646C363.775 69.3003 363.141 69.9952 362.466 70.6449C357.956 74.9802 352.261 77.728 346.182 78.5021C345.269 78.6207 344.351 78.6763 343.432 78.6685C343.096 78.6988 342.758 78.6707 342.432 78.5853Z" fill="#455A64"/>
<path d="M407.307 67.7086C406.488 67.8615 405.647 67.8085 404.852 67.554C402.918 67.0247 401.084 66.1522 399.432 64.9746C397.779 63.8492 396.2 62.6103 394.704 61.2659C394.049 60.7551 393.454 60.1645 392.932 59.5066C393.666 59.8831 394.35 60.3586 394.966 60.9211C396.182 61.8483 397.829 63.1678 399.75 64.4872C401.362 65.6093 403.113 66.4971 404.954 67.1261C406.375 67.5778 407.307 67.6016 407.307 67.7086Z" fill="#455A64"/>
<path d="M324.353 104.689C324.715 103.771 325.205 102.914 325.807 102.145C328.497 98.265 331.994 95.0743 336.034 92.8139C336.837 92.2867 337.71 91.8861 338.625 91.6252C335.884 93.3064 333.274 95.2102 330.818 97.3191C328.484 99.5967 326.322 102.061 324.353 104.689Z" fill="#455A64"/>
<path d="M335.784 110.335C335.809 105.859 337.375 101.542 340.193 98.1748C340.341 98.2818 338.693 100.683 337.489 104.059C336.284 107.435 335.966 110.347 335.784 110.335Z" fill="#455A64"/>
<path d="M318.966 241.603C318.966 241.603 311.011 277.263 311.011 311.664C311.011 346.065 312.204 365.357 312.204 365.357C312.204 365.357 304.397 387.372 304.397 407.71C304.397 428.049 309.886 476.536 309.886 476.536H334.545C334.545 476.536 344.693 409.969 349.42 396.596C355.268 379.09 359.686 361.096 362.625 342.808C364.045 332.454 376.522 262.369 376.522 262.369L374.557 250.411L318.966 241.603Z" fill="#FFBE9D"/>
<path d="M372.341 249.935C372.796 252.158 369.75 365.774 374 376.127C378.25 386.481 382.068 392.424 382.773 402.041C383.478 411.657 394.398 473.659 395.455 476.263H416.228C416.228 476.263 426.193 432.578 425.137 406.688C424.08 380.799 419.83 367.854 419.83 367.854C419.83 367.854 418.057 347.147 421.239 334.939C424.421 322.731 433.262 291.302 431.853 271.332C430.443 251.362 417.705 236.574 417.705 236.574L372.341 249.935Z" fill="#FFBE9D"/>
<path d="M431.819 263.665C430.524 254.642 428.447 245.762 425.614 237.133L313.546 244.693L309.637 296.865L369.364 307.171L370.932 302.547V308.051L433.159 295.07C433.638 284.581 433.189 274.068 431.819 263.665Z" fill="#263238"/>
<path d="M332.796 125.063L338.955 125.158C338.955 125.158 352.591 145.699 367.069 145.699C381.546 145.699 385.228 125.242 385.228 125.242L403.58 127.548C403.58 127.548 406.989 150.359 408.353 160.926C409.716 171.494 406.989 194.138 406.989 194.138C406.989 194.138 424.307 209.044 426.569 239.832C390.58 264.319 349.705 268.075 312.262 253.846C312.377 242.895 313.178 231.963 314.659 221.122C317.023 205.276 325.637 182.869 325.637 182.869L332.796 125.063Z" fill="#C85C8E"/>
<g opacity="0.3">
<path d="M318.716 218.126H318.977C318.875 217.983 318.761 217.852 318.659 217.722L318.716 218.126Z" fill="#0A0A0A"/>
</g>
<g opacity="0.3">
<path d="M318.978 218.126C323.023 223.213 329.546 225.71 335.887 225.781C342.398 225.864 348.75 223.665 354.671 220.836C360.591 218.007 366.216 214.512 372.171 211.766C354.546 214.881 336.841 218.019 318.978 218.126Z" fill="#0A0A0A"/>
</g>
<path d="M332.795 125.063C332.795 125.063 316.432 122.603 313.034 136.344C309.489 150.739 301.886 201.187 313.557 214.227C325.227 227.267 370.023 214.893 395.739 202.411L390.17 188.004L338.955 183.737C337.773 182.964 332.795 125.063 332.795 125.063Z" fill="#FFBE9D"/>
<path d="M418.466 205.407C419.25 203.564 416.977 200.082 416.977 200.082C417.477 198.893 415.397 193.889 415.397 193.889C415.316 192.526 415.017 191.188 414.511 189.93C413.852 188.884 404.057 184.712 401.034 184.617C398.011 184.522 389.147 187.529 389.147 187.529L395.738 202.411C395.738 202.411 406.42 206.108 408.897 207C410.481 207.498 412.187 207.349 413.67 206.584L419.988 210.15C420.966 208.973 418.466 205.407 418.466 205.407Z" fill="#FFBE9D"/>
<path d="M389.704 117.574L387.602 128.273C387.204 131.839 376.023 175.511 381.136 184.664C386.25 193.817 392.67 196.254 396.852 195.707C401.034 195.16 411.136 194.043 416.329 179.458C418.602 173.134 417.079 143.203 412.238 135.417C410.001 132.087 407.097 129.308 403.727 127.274C403.232 124.163 402.989 121.014 403 117.86L389.704 117.574Z" fill="#FFBE9D"/>
<path d="M405.238 182.013C405.238 182.013 405.659 181.193 406.375 179.707C407.362 177.605 408.154 175.407 408.738 173.146C409.602 169.794 410.075 166.346 410.148 162.875C410.22 158.621 409.839 154.371 409.011 150.204C408.182 146.031 407.101 141.918 405.773 137.889C404.707 134.566 403.916 131.154 403.409 127.69C403.062 125.357 402.869 123.002 402.829 120.641C402.829 119.809 402.829 119.155 402.829 118.727C402.803 118.502 402.803 118.275 402.829 118.05C402.88 118.268 402.903 118.491 402.898 118.715C402.898 119.155 402.898 119.809 403 120.629C403.134 122.972 403.388 125.305 403.761 127.619C404.329 131.045 405.154 134.42 406.227 137.711C407.6 141.751 408.705 145.886 409.534 150.085C410.386 154.292 410.767 158.588 410.67 162.887C410.567 166.403 410.036 169.89 409.091 173.265C408.465 175.541 407.608 177.741 406.534 179.826C406.136 180.551 405.829 181.11 405.579 181.467C405.49 181.664 405.376 181.848 405.238 182.013Z" fill="#EB996E"/>
<path d="M331.17 188.005C332.09 186.503 333.437 185.343 335.023 184.688C336.523 183.853 338.233 183.521 339.92 183.737C338.338 184.124 336.784 184.633 335.273 185.259C333.839 186.061 332.467 186.979 331.17 188.005Z" fill="#EB996E"/>
<path d="M370.341 282.719C370.676 283.915 370.878 285.148 370.943 286.393C371.24 289.374 371.392 292.37 371.398 295.367C371.398 298.874 371.341 302.048 371.239 304.342C371.241 305.585 371.142 306.825 370.943 308.051C370.809 306.816 370.767 305.572 370.818 304.33C370.818 301.857 370.818 298.779 370.818 295.367C370.818 291.956 370.682 288.71 370.545 286.428C370.408 285.197 370.34 283.959 370.341 282.719Z" fill="#455A64"/>
<path d="M368.432 281.222C366.723 279.584 364.92 278.055 363.034 276.645C361.026 275.421 358.95 274.321 356.818 273.353C361.495 274.339 365.636 277.153 368.398 281.222H368.432Z" fill="#455A64"/>
<path d="M385.545 264.14C384.763 264.933 383.936 265.675 383.068 266.363C379.046 269.907 375.56 274.067 372.727 278.702C372.191 279.698 371.591 280.655 370.932 281.566C371.291 280.481 371.772 279.443 372.363 278.476C375.037 273.663 378.576 269.437 382.784 266.03C383.628 265.286 384.555 264.651 385.545 264.14Z" fill="#455A64"/>
<path d="M389.625 117.955C390.034 116.351 390.678 114.823 391.534 113.426C392.67 111.762 395.352 106.722 395.352 106.722L395.511 104.511C395.511 104.511 391.443 95.9877 393.239 92.8614L394.227 92.5404C394.227 92.5404 392.625 90.27 394.227 88.487L395.716 88.5702L401.807 97.9252L398.205 88.2374C398.205 88.2374 398.295 85.86 399.875 85.4202L406.398 96.2016C406.398 96.2016 404.125 91.3874 404.307 90.2582C404.489 89.1289 404.42 87.9521 405.716 87.1081L409.205 93.7291L409.659 104.867L402.841 118.074" fill="#FFBE9D"/>
<path d="M402.875 118.05C402.902 117.967 402.936 117.888 402.977 117.812C403.057 117.622 403.17 117.396 403.295 117.123L404.602 114.484L409.545 104.748V104.855C409.398 101.575 409.227 97.8302 409.045 93.7174V93.8362L405.534 87.2152L405.909 87.3222C405.601 87.5044 405.338 87.7595 405.14 88.067C404.943 88.3745 404.817 88.7259 404.773 89.0934C404.716 89.4856 404.659 89.8898 404.591 90.282C404.592 90.6508 404.654 91.0166 404.773 91.3638C405.294 92.9719 405.928 94.5373 406.67 96.0472L406.17 96.3325L399.636 85.5629L399.955 85.6937C399.561 85.8104 399.227 86.0834 399.023 86.4545C398.721 86.9943 398.546 87.6013 398.511 88.2256V88.0949L402.102 97.7946L403.023 100.279L401.591 98.068L395.557 88.7486L395.761 88.8675L394.318 88.7486L394.523 88.6654C394.296 88.9054 394.119 89.192 394.004 89.5071C393.888 89.8222 393.837 90.159 393.852 90.496C393.91 91.168 394.129 91.8139 394.489 92.3742L394.693 92.6832L394.364 92.7902L393.364 93.0993L393.511 92.9923C393.09 93.9633 392.96 95.0447 393.136 96.0948C393.268 97.1218 393.481 98.1356 393.773 99.1259C394.298 100.935 394.955 102.7 395.739 104.404C395.682 105.212 395.625 105.925 395.568 106.615C394.629 108.39 393.761 109.951 392.966 111.298C392.205 112.665 391.33 113.676 390.898 114.662C390.544 115.406 390.237 116.172 389.977 116.956C389.893 117.231 389.795 117.501 389.682 117.765C389.674 117.694 389.674 117.622 389.682 117.551C389.682 117.408 389.761 117.194 389.841 116.921C390.065 116.108 390.346 115.313 390.682 114.543C391.114 113.521 391.955 112.487 392.682 111.108C393.409 109.729 394.295 108.184 395.216 106.353V106.424L395.364 104.225V104.332C394.548 102.617 393.864 100.836 393.318 99.0071C393.008 97.9913 392.784 96.9492 392.648 95.8927C392.441 94.7309 392.584 93.5307 393.057 92.4574V92.3742H393.148L394.148 92.0532L394.023 92.4693C393.594 91.8291 393.332 91.0837 393.261 90.3058C393.241 89.8935 393.302 89.4812 393.441 89.0947C393.58 88.7082 393.793 88.3557 394.068 88.0592L394.159 87.9641H394.273L395.773 88.0473H395.898L395.977 88.1662L402.08 97.5093L401.58 97.7946L397.966 88.1068V88.0473C398 87.3126 398.207 86.5981 398.568 85.9671C398.856 85.4622 399.321 85.0953 399.864 84.9448H400.068L400.182 85.135L406.693 95.9165L406.205 96.2136C405.45 94.682 404.808 93.0924 404.284 91.4589C404.139 91.0239 404.073 90.5641 404.091 90.1037C404.159 89.6996 404.216 89.2835 404.284 88.9151C404.34 88.4759 404.489 88.0556 404.721 87.6851C404.953 87.3147 405.262 87.0038 405.625 86.7754L405.875 86.6328L406 86.8824C407.216 89.1884 408.375 91.4113 409.477 93.5153C409.636 97.6282 409.773 101.384 409.886 104.653V104.713L404.795 114.365L403.409 117.17L403.034 117.836C402.932 117.979 402.886 118.062 402.875 118.05Z" fill="#EB996E"/>
<path d="M399.67 106.389C399.67 106.389 399.75 106.175 399.807 105.806C399.875 105.276 399.856 104.737 399.75 104.213L399.545 103.108C399.545 102.894 399.466 102.692 399.42 102.478C399.38 102.276 399.316 102.08 399.227 101.896C398.875 101.087 398.398 100.196 397.886 99.2804C396.55 97.1096 395.336 94.8591 394.25 92.5405C395.837 94.5316 397.227 96.6863 398.398 98.9714C398.9 99.8436 399.348 100.749 399.739 101.682C399.831 101.907 399.899 102.142 399.943 102.383L400.034 103.013C400.091 103.429 400.136 103.809 400.17 104.202C400.242 104.776 400.195 105.359 400.034 105.913C399.886 106.27 399.693 106.413 399.67 106.389Z" fill="#EB996E"/>
<path d="M403.784 105.39C403.693 105.39 403.864 104.915 403.92 104.201C403.972 103.268 403.825 102.334 403.489 101.467C403.132 100.587 402.698 99.7437 402.193 98.9474C401.818 98.3055 401.591 97.8895 401.659 97.8419C401.727 97.7944 402.057 98.1035 402.534 98.6859C403.159 99.4504 403.665 100.313 404.034 101.242C404.42 102.194 404.523 103.246 404.329 104.261C404.159 105.057 403.841 105.39 403.784 105.39Z" fill="#EB996E"/>
<path d="M407.534 103.405C407.219 102.238 406.998 101.045 406.875 99.8393C406.57 98.6709 406.357 97.4782 406.239 96.2732C407.414 98.4347 407.87 100.943 407.534 103.405Z" fill="#EB996E"/>
<path d="M413.5 184.248C413.5 184.248 413.5 184.391 413.352 184.641C413.183 185.004 412.993 185.358 412.784 185.698C412.027 186.961 411.135 188.13 410.125 189.181C408.645 190.764 406.962 192.124 405.125 193.223C402.873 194.607 400.382 195.512 397.795 195.886C395.168 196.115 392.533 195.55 390.204 194.257C388.308 193.255 386.575 191.948 385.068 190.382C384.043 189.349 383.139 188.191 382.375 186.935C382.091 186.507 381.932 186.126 381.795 185.889C381.727 185.765 381.673 185.634 381.636 185.496C382.74 187.14 383.988 188.672 385.364 190.073C386.872 191.556 388.584 192.794 390.443 193.746C392.686 194.958 395.211 195.485 397.727 195.267C400.237 194.911 402.658 194.047 404.852 192.724C406.667 191.671 408.344 190.377 409.841 188.872C411.192 187.45 412.417 185.903 413.5 184.248Z" fill="#EB996E"/>
<path d="M367.386 185.793C367.295 185.722 368.046 184.605 368.898 182.655C369.387 181.502 369.786 180.31 370.091 179.089C370.828 176.093 370.986 172.973 370.557 169.912C370.385 168.666 370.111 167.437 369.739 166.239C369.102 164.183 368.466 163.006 368.602 162.947C368.739 162.887 368.818 163.208 369.114 163.731C369.533 164.489 369.887 165.285 370.171 166.109C370.606 167.318 370.929 168.568 371.136 169.841C371.375 171.413 371.459 173.006 371.386 174.596C371.296 176.176 371.048 177.741 370.648 179.267C370.306 180.497 369.857 181.69 369.307 182.834C368.939 183.613 368.506 184.357 368.011 185.056C367.636 185.556 367.42 185.817 367.386 185.793Z" fill="#263238"/>
<path d="M403.068 212.373C402.478 212.295 401.896 212.159 401.33 211.969C400.784 211.814 400.114 211.636 399.318 211.481C398.523 211.327 397.637 211.077 396.625 210.922C394.284 210.501 391.919 210.235 389.546 210.126C386.641 210.006 383.732 210.105 380.841 210.423C377.95 210.78 375.087 211.352 372.273 212.135C369.985 212.779 367.738 213.573 365.546 214.512C364.591 214.881 363.773 215.321 363.034 215.701C362.296 216.081 361.671 216.379 361.171 216.652C360.659 216.965 360.123 217.232 359.568 217.448C360.039 217.067 360.541 216.728 361.068 216.438C361.657 216.057 362.264 215.708 362.887 215.392C363.614 215.012 364.432 214.548 365.375 214.203C367.587 213.179 369.865 212.321 372.193 211.636C375.025 210.814 377.912 210.218 380.83 209.853C383.751 209.532 386.692 209.448 389.625 209.603C392.023 209.735 394.408 210.048 396.762 210.542C397.773 210.72 398.659 210.982 399.455 211.184C400.25 211.386 400.909 211.6 401.455 211.79C402.006 211.94 402.546 212.134 403.068 212.373Z" fill="#263238"/>
<g opacity="0.3">
<path d="M374.637 174.406C373.78 170.394 371.83 166.727 369.023 163.85V163.945C370.731 167.445 371.466 171.377 371.142 175.292C370.819 179.207 369.45 182.949 367.193 186.091C369.33 186.091 371.739 186.435 373.875 186.471C375.237 182.61 375.502 178.42 374.637 174.406Z" fill="#0A0A0A"/>
</g>
<path d="M393.625 381.417C393.067 381.986 392.378 382.395 391.625 382.605C389.811 383.247 387.839 383.196 386.057 382.463C384.286 381.716 382.828 380.333 381.943 378.564C381.519 377.872 381.291 377.068 381.284 376.246C381.375 376.246 381.58 377.126 382.307 378.35C383.224 379.956 384.622 381.202 386.283 381.893C387.945 382.585 389.779 382.685 391.5 382.177C392.83 381.833 393.568 381.322 393.625 381.417Z" fill="#EB996E"/>
<path d="M348.011 370.017C348.011 370.017 347.909 370.35 347.614 370.909C347.198 371.687 346.715 372.423 346.17 373.108C345.374 374.139 344.483 375.086 343.511 375.937C342.313 376.971 341.014 377.872 339.636 378.623C338.248 379.357 336.789 379.935 335.284 380.347C334.056 380.676 332.8 380.879 331.534 380.953C330.686 381.012 329.834 380.992 328.989 380.894C328.386 380.822 328.057 380.763 328.068 380.715C328.08 380.668 329.398 380.716 331.477 380.513C332.71 380.381 333.93 380.142 335.125 379.8C338.05 378.948 340.779 377.484 343.148 375.497C344.11 374.683 345.007 373.789 345.829 372.823C347.25 371.158 347.92 369.958 348.011 370.017Z" fill="#EB996E"/>
<path d="M103.478 270.844C103.478 270.844 110.955 295.355 121.818 307.076C132.682 318.796 135.659 326.677 135.659 326.677L139.523 391.532L134.728 486.129L153.784 487.757C153.784 487.757 161.091 421.963 163.137 410.231C165.182 398.498 166.466 379.907 166.466 379.907C166.466 379.907 170.25 332.015 170.591 314.969C170.932 297.923 174.796 294.642 173.443 277.941C172.091 261.24 168.398 251.885 168.398 251.885L103.478 270.844Z" fill="#FFBE9D"/>
<path d="M148 409.565C147.645 408.481 147.398 407.362 147.262 406.225C146.875 404.156 146.398 401.28 145.898 398.094C145.398 394.908 144.977 392.032 144.762 389.928C144.556 388.803 144.449 387.661 144.443 386.516C144.783 387.605 145.03 388.722 145.182 389.856C145.557 391.937 146.046 394.813 146.534 397.999C147.023 401.185 147.455 404.061 147.671 406.165C147.875 407.286 147.985 408.424 148 409.565Z" fill="#EB996E"/>
<path d="M153.875 403.288C153.91 402.031 154.016 400.777 154.193 399.532C154.42 397.238 154.67 394.04 154.761 390.522C154.852 387.003 154.761 383.782 154.659 381.476C154.536 380.228 154.495 378.973 154.534 377.72C154.828 378.939 155.007 380.185 155.068 381.44C155.618 387.488 155.462 393.583 154.602 399.592C154.486 400.847 154.242 402.087 153.875 403.288Z" fill="#EB996E"/>
<path d="M135.091 478.937L134.091 499.918H177.534C177.534 499.918 177.034 496.946 171.148 494.794C164.329 492.286 153.841 489.089 153.841 489.089L154.795 478.937H135.091Z" fill="#FFBE9D"/>
<path d="M97.3862 257.899C95.9203 258.018 93.2953 279.011 93.2953 279.011C93.2953 279.011 96.8748 302.155 97.3862 303.522C102.034 316.193 99.4885 363.372 99.4885 363.372C99.4885 363.372 86.0226 396.454 83.2839 441.386C81.7953 465.909 80.5566 480.803 80.5566 480.803L94.318 489.397C94.318 489.397 106.5 432.804 110.227 420.37C113.363 409.945 115.67 395.812 118.648 390.522C119.261 389.452 124.432 386.516 125.784 377.72L134.784 324.882C134.784 324.882 150.693 256.485 151.659 254.856L97.3862 257.899Z" fill="#FFBE9D"/>
<path d="M107.637 380.537C107.921 379.41 108.262 378.299 108.659 377.209C109.479 374.548 110.106 371.826 110.534 369.066C110.936 366.312 111.141 363.531 111.148 360.745C111.09 359.581 111.09 358.415 111.148 357.251C111.424 358.389 111.561 359.559 111.557 360.734C111.808 366.401 110.957 372.062 109.057 377.375C108.712 378.487 108.235 379.55 107.637 380.537Z" fill="#EB996E"/>
<path d="M121.375 375.354C121.432 375.438 120.954 375.806 120.341 376.543C119.552 377.463 118.945 378.538 118.557 379.705C118.173 380.873 118.018 382.11 118.102 383.342C118.196 383.86 118.242 384.385 118.239 384.912C117.926 384.47 117.734 383.948 117.682 383.402C117.469 382.095 117.579 380.753 118 379.503C118.404 378.246 119.112 377.119 120.057 376.234C120.784 375.533 121.341 375.295 121.375 375.354Z" fill="#EB996E"/>
<path d="M80.5344 480.411L78.1025 500.5H117.421C117.421 500.5 116.921 497.516 111.034 495.365C104.216 492.869 94.3525 489.421 94.3525 489.421L95.4889 481.231L80.5344 480.411Z" fill="#FFBE9D"/>
<path d="M98.3862 59.257L98.9999 54.5022L126.716 53.5513C135.148 53.9911 142.818 64.1544 142.045 72.9507C141.182 82.7337 139.773 94.6325 137.579 101.67C133.193 115.839 122.284 115.934 122.284 115.934L121.375 124.172C121.138 126.346 120.493 128.451 119.477 130.364C118.461 132.278 117.095 133.963 115.456 135.324C113.816 136.684 111.936 137.693 109.924 138.292C107.911 138.891 105.806 139.07 103.727 138.816C94.7839 137.735 91.068 129.188 92.3635 119.88L98.3862 59.257Z" fill="#FFBE9D"/>
<path d="M122.273 116.089C122.273 116.089 114.159 114.9 111.08 112.522C111.08 112.522 112.352 119.571 121.875 119.714L122.273 116.089Z" fill="#EB996E"/>
<path d="M130.886 46.8115C128.205 45.2291 125.278 44.1546 122.239 43.6377C119.658 42.9974 117.032 42.5799 114.386 42.3896C109.389 42.2476 104.442 43.4603 100.026 45.9098C95.6092 48.3593 91.8736 51.9623 89.1819 56.3686C83.8524 65.165 82.9774 81.8186 86.4433 97.3191C87.5797 102.133 95.1251 104.951 96.1592 107.72L135.659 54.645C135.523 53.0346 135.018 51.4823 134.187 50.1189C133.356 48.7555 132.224 47.6212 130.886 46.8115ZM96.1365 106.686C96.1365 106.805 96.1365 107.28 96.1365 107.542C96.1478 107.007 96.1365 106.757 96.1365 106.686Z" fill="#263238"/>
<path d="M143.807 66.2347C143.409 61.2897 139.875 57.2125 135.955 54.431C131.288 51.1531 125.755 49.4901 120.136 49.6762C112.239 50.0685 104.932 55.1323 100.511 61.9792C96.0909 68.826 88.9091 75.6135 89.4204 83.863C89.9318 92.1125 89.7386 102.347 93.2386 109.753L102.955 112.522C107.909 113.711 120.227 107.661 124.011 104.118C127.795 100.576 130.398 95.8807 132.955 91.2448C135.227 87.1161 137.5 82.9913 139.773 78.8705C141.943 74.9597 144.17 70.7279 143.807 66.2347Z" fill="#263238"/>
<path d="M96.3753 81.4143C95.6913 81.3023 94.9928 81.336 94.3216 81.5134C93.6505 81.6909 93.0205 82.0084 92.4697 82.447C91.9188 82.8856 91.4584 83.4361 91.116 84.0655C90.7737 84.6949 90.5565 85.3902 90.4775 86.1097C90.448 87.5015 90.7527 88.8788 91.3639 90.1156C91.788 91.2941 92.5401 92.3126 93.523 93.0397C94.0765 93.3548 94.6867 93.5461 95.3146 93.6013C95.9426 93.6566 96.5747 93.5746 97.1707 93.3607C98.3616 92.9236 99.4583 92.245 100.398 91.3637C101.716 90.2463 102.989 88.7605 102.955 86.9893C102.921 85.2181 101.364 83.5896 99.8298 82.5079C98.9891 81.871 98.0127 81.458 96.985 81.3047C95.9574 81.1514 94.9095 81.2625 93.9321 81.6283" fill="#C85C8E"/>
<path d="M104.239 98.3414C103.893 94.7185 102.634 91.2565 100.591 88.3088C99.5583 86.8503 98.195 85.6835 96.6238 84.9136C95.0527 84.1437 93.323 83.7949 91.5908 83.8988L90.2158 84.3267C88.1346 84.9586 86.2127 86.0643 84.5879 87.5645C82.9632 89.0647 81.6758 90.9223 80.8181 93.0042V93.0874C80.159 94.7278 79.6817 96.4514 78.8863 98.0205C77.8329 100.064 76.2598 101.763 74.3408 102.93C75.9289 104.748 77.8342 106.233 79.9545 107.304C82.5542 108.153 85.214 108.785 87.909 109.194C89.3863 109.503 92.6136 103.346 92.6136 103.346C92.6136 103.346 92.1022 110.288 93.1704 110.478C94.9005 110.846 96.6497 111.108 98.409 111.262C99.6308 111.358 100.858 111.358 102.079 111.262C102.376 111.307 102.677 111.227 102.918 111.04C103.158 110.853 103.319 110.574 103.364 110.264C104.574 106.423 104.875 102.331 104.239 98.3414Z" fill="#263238"/>
<path d="M104.239 98.3413C104.289 98.5287 104.327 98.7193 104.352 98.9119C104.352 99.2804 104.477 99.8391 104.545 100.576C104.73 102.685 104.661 104.809 104.341 106.9C104.23 107.609 104.082 108.311 103.898 109.004C103.807 109.361 103.705 109.729 103.58 110.098C103.496 110.545 103.291 110.957 102.989 111.286C102.608 111.512 102.176 111.623 101.739 111.607H100.5C99.6591 111.607 98.7841 111.607 97.8864 111.488C96.9887 111.369 96.0796 111.298 95.1478 111.144L93.716 110.894C93.4594 110.853 93.2053 110.797 92.9546 110.728C92.8177 110.639 92.7004 110.521 92.6103 110.382C92.5202 110.243 92.4593 110.085 92.4319 109.919C92.2158 108.853 92.1242 107.763 92.1591 106.674C92.1591 105.58 92.1591 104.463 92.2728 103.334L92.7728 103.488C92.0167 104.946 91.1543 106.341 90.1932 107.661C89.6995 108.42 89.0313 109.037 88.25 109.456C88.1067 109.475 87.9616 109.475 87.8182 109.456H87.5114L86.8978 109.337L85.6591 109.099C83.954 108.8 82.2659 108.403 80.6023 107.91C78.8949 107.268 77.3239 106.282 75.9773 105.01C75.3182 104.416 74.6932 103.821 74.1023 103.156L73.8296 102.882L74.1591 102.68C76.1913 101.442 77.8221 99.5955 78.8409 97.3785C79.8296 95.2269 80.3523 92.8258 81.5796 90.8407C82.7427 88.9259 84.2946 87.3026 86.125 86.0859C87.796 84.9816 89.632 84.178 91.5569 83.7085C93.018 83.6082 94.4829 83.834 95.8543 84.3709C97.2257 84.9078 98.4723 85.7437 99.5114 86.8229C101.092 88.4515 102.296 90.4353 103.034 92.6237C103.513 93.9997 103.863 95.4208 104.08 96.8673C104.159 97.3666 104.205 97.747 104.227 98.056C104.24 98.1865 104.24 98.3179 104.227 98.4483C104.182 98.3261 104.151 98.1983 104.136 98.0679C104.08 97.7707 104.011 97.4023 103.92 96.9387C103.654 95.517 103.274 94.1214 102.784 92.7664C102.027 90.647 100.823 88.7334 99.2614 87.1676C98.2569 86.1497 97.0589 85.3643 95.7452 84.8626C94.4315 84.3608 93.0316 84.1539 91.6364 84.2553C89.7638 84.7438 87.9792 85.5467 86.3523 86.6327C84.6054 87.8331 83.1314 89.4196 82.0341 91.2805C80.8978 93.1824 80.3637 95.5241 79.341 97.7707C78.2759 100.102 76.5655 102.044 74.4319 103.346L74.5 102.858C75.0909 103.476 75.6364 104.047 76.341 104.665C77.6271 105.888 79.1286 106.836 80.7614 107.459C82.3993 107.946 84.0607 108.343 85.7387 108.647L86.9773 108.885L87.591 109.004C87.6932 109.004 87.8069 109.004 87.8864 109.004C87.9659 109.004 88 109.004 88.0682 109.004C88.732 108.625 89.3006 108.088 89.7273 107.435C90.6737 106.139 91.5282 104.772 92.2841 103.346L92.875 102.252L92.7841 103.5C92.7046 104.618 92.6591 105.735 92.6591 106.805C92.6203 107.845 92.7004 108.887 92.8978 109.907C92.9255 110.086 93.0048 110.252 93.125 110.383L93.7841 110.525L95.1932 110.787C96.125 110.941 97.0228 111.072 97.9091 111.155C98.7955 111.239 99.6478 111.286 100.477 111.286C100.886 111.286 101.295 111.286 101.693 111.286C102.051 111.309 102.408 111.231 102.727 111.06C102.962 110.798 103.123 110.473 103.193 110.121C103.33 109.765 103.432 109.408 103.534 109.051C103.727 108.338 103.886 107.649 104 106.995C104.343 104.931 104.461 102.834 104.352 100.742C104.352 100.053 104.261 99.4943 104.239 99.0664C104.194 98.827 104.194 98.5808 104.239 98.3413Z" fill="#455A64"/>
<path d="M90.216 116.255C90.216 116.255 90.5001 116.112 90.5682 115.661C90.5897 115.535 90.58 115.406 90.5403 115.285C90.5005 115.164 90.4319 115.056 90.341 114.971C90.2099 114.879 90.0556 114.83 89.8978 114.83C89.74 114.83 89.5857 114.879 89.4546 114.971C88.7728 115.28 88.7955 116.588 89.6592 117.182C90.1427 117.507 90.6888 117.716 91.2586 117.794C91.8283 117.872 92.4074 117.817 92.9546 117.634C94.0872 117.297 95.0793 116.573 95.7728 115.578C96.3274 114.74 96.714 113.794 96.9092 112.796C97.2501 111.072 97.0796 109.943 97.1932 109.943C97.3069 109.943 97.3069 110.205 97.3637 110.716C97.4521 111.434 97.4521 112.161 97.3637 112.879C97.2031 113.965 96.8151 115 96.2273 115.91C95.4889 117.056 94.3919 117.897 93.1251 118.288C92.4916 118.493 91.8218 118.546 91.1663 118.441C90.5107 118.336 89.8865 118.076 89.341 117.682C89.0918 117.492 88.8867 117.246 88.7411 116.962C88.5954 116.678 88.5131 116.363 88.5001 116.041C88.4804 115.749 88.5445 115.457 88.6841 115.203C88.8238 114.949 89.0327 114.744 89.2842 114.615C89.4914 114.501 89.727 114.458 89.9588 114.49C90.1907 114.522 90.4075 114.627 90.5796 114.793C90.6983 114.924 90.7818 115.085 90.8217 115.26C90.8616 115.436 90.8565 115.619 90.8069 115.791C90.6137 116.291 90.1933 116.291 90.216 116.255Z" fill="#263238"/>
<path d="M111.738 117.206C111.738 117.206 111.738 117.337 111.682 117.563C111.57 117.886 111.413 118.191 111.216 118.466C110.471 119.497 109.369 120.18 108.147 120.368C107.321 120.522 106.474 120.522 105.647 120.368C104.685 120.21 103.769 119.828 102.966 119.25C102.513 118.916 102.149 118.466 101.909 117.943C101.667 117.375 101.615 116.739 101.761 116.136C101.827 115.81 101.963 115.504 102.16 115.242C102.357 114.98 102.61 114.77 102.897 114.626C103.206 114.498 103.54 114.453 103.87 114.494C104.199 114.536 104.513 114.663 104.784 114.864C105.058 115.048 105.286 115.297 105.452 115.59C105.618 115.883 105.716 116.212 105.738 116.552C105.78 117.201 105.603 117.844 105.238 118.371C104.884 118.839 104.414 119.197 103.879 119.407C103.345 119.616 102.766 119.669 102.204 119.56C101.216 119.378 100.324 118.829 99.6929 118.014C99.123 117.339 98.7313 116.519 98.5565 115.637C98.3441 114.385 98.47 113.097 98.9202 111.916C99.0502 111.485 99.2543 111.082 99.5224 110.728C99.5224 110.728 99.3633 111.191 99.1361 112.023C98.7911 113.178 98.7325 114.405 98.9656 115.589C99.1415 116.381 99.5005 117.116 100.011 117.729C100.595 118.437 101.4 118.905 102.284 119.048C102.742 119.131 103.214 119.085 103.649 118.913C104.085 118.742 104.468 118.452 104.761 118.074C104.913 117.882 105.025 117.66 105.092 117.421C105.159 117.183 105.179 116.932 105.15 116.685C105.122 116.438 105.045 116.2 104.925 115.985C104.806 115.77 104.645 115.583 104.454 115.435C104.266 115.292 104.047 115.201 103.817 115.17C103.587 115.138 103.352 115.168 103.136 115.256C102.928 115.357 102.746 115.508 102.604 115.696C102.462 115.883 102.364 116.104 102.318 116.338C102.215 116.812 102.253 117.308 102.428 117.759C102.603 118.209 102.905 118.593 103.295 118.858C104.028 119.398 104.866 119.76 105.75 119.916C106.519 120.089 107.309 120.129 108.091 120.035C109.23 119.889 110.277 119.309 111.034 118.406C111.301 118.028 111.537 117.627 111.738 117.206Z" fill="#263238"/>
<path d="M97.3639 81.1884C97.3344 81.0035 97.3344 80.8147 97.3639 80.6297C97.3639 80.2731 97.3639 79.7263 97.4321 79.0488C97.579 77.0964 97.8986 75.1625 98.3866 73.2717C99.9602 66.9636 103.232 61.2605 107.812 56.8398C112.393 52.4191 118.09 49.4666 124.228 48.3329C126.068 47.9817 127.936 47.8106 129.807 47.8218C130.478 47.8218 130.943 47.8218 131.33 47.8931C131.51 47.8865 131.691 47.9106 131.864 47.9645C131.184 48.0349 130.501 48.0666 129.818 48.0595C127.966 48.1405 126.124 48.375 124.307 48.7609C118.288 49.9799 112.712 52.9238 108.199 57.2643C103.687 61.6049 100.415 67.1714 98.7503 73.3431C98.2287 75.2027 97.8487 77.1026 97.6139 79.025C97.5664 79.7502 97.4829 80.4723 97.3639 81.1884Z" fill="#455A64"/>
<path d="M93.25 52.3508C92.5912 53.6829 92.0032 55.0519 91.4887 56.4518C90.4048 59.8969 90.0178 63.5401 90.3523 67.1501C90.7341 70.7533 91.4379 74.3112 92.4546 77.777C92.9233 79.2079 93.3028 80.6691 93.5909 82.1514C93.3904 81.8014 93.2339 81.4258 93.125 81.034C92.8523 80.3089 92.4887 79.2391 92.0682 77.9077C90.9322 74.4413 90.1699 70.853 89.7955 67.2095C89.4297 63.529 89.8688 59.8098 91.0796 56.333C91.4531 55.2875 91.9331 54.2872 92.5114 53.3493C92.7099 52.9807 92.9587 52.6443 93.25 52.3508Z" fill="#455A64"/>
<path d="M143.182 66.8528C142.883 67.4111 142.537 67.9402 142.148 68.4337C141.736 69.0451 141.292 69.6324 140.818 70.193C140.261 70.8468 139.682 71.6313 138.909 72.3921C138.112 73.2596 137.274 74.0848 136.398 74.8646C135.489 75.7561 134.42 76.5763 133.318 77.4678C128.415 81.225 122.85 83.9316 116.943 85.4321C115.579 85.7411 114.295 86.074 113.057 86.2285C111.928 86.4227 110.79 86.5575 109.648 86.6326C108.591 86.7515 107.636 86.7277 106.795 86.7515C106.083 86.7738 105.369 86.75 104.659 86.6802C104.049 86.6749 103.44 86.6112 102.841 86.49C103.446 86.4392 104.054 86.4392 104.659 86.49C105.371 86.5292 106.084 86.5292 106.795 86.49C107.625 86.49 108.568 86.49 109.602 86.2879C110.745 86.1895 111.883 86.0308 113.011 85.8124C114.227 85.6341 115.5 85.3013 116.852 84.9804C122.647 83.3919 128.108 80.6869 132.954 77.0042C134.091 76.1365 135.125 75.34 136.034 74.4842C136.943 73.6283 137.818 72.8438 138.568 72.1068C139.318 71.3698 139.954 70.6091 140.523 69.979C141.019 69.4454 141.489 68.886 141.932 68.303C142.306 67.7818 142.725 67.2965 143.182 66.8528Z" fill="#455A64"/>
<path d="M130.363 94.3947C130.026 94.5987 129.663 94.7509 129.284 94.8464C128.29 95.1985 127.272 95.4727 126.238 95.6666C124.701 95.973 123.143 96.1479 121.579 96.1897C117.741 96.3048 113.916 95.6595 110.307 94.2878C108.841 93.7318 107.42 93.0561 106.057 92.267C105.132 91.7379 104.243 91.1421 103.397 90.4839C103.072 90.2708 102.778 90.0107 102.522 89.7113C102.522 89.6162 103.909 90.6266 106.25 91.8747C107.619 92.6031 109.035 93.2307 110.488 93.7529C112.273 94.3773 114.1 94.8582 115.954 95.1912C117.834 95.4934 119.734 95.6366 121.636 95.6191C123.158 95.5967 124.676 95.4696 126.182 95.2387C128.761 94.8227 130.329 94.2878 130.363 94.3947Z" fill="#455A64"/>
<path d="M81.0225 107.221C81.0245 106.837 81.0859 106.455 81.2043 106.092C81.3747 105.378 81.6361 104.356 82.0111 103.108C82.954 99.8192 84.3719 96.7005 86.2156 93.8599C88.3747 90.5791 90.6929 87.7738 92.8861 86.383C93.7262 85.8077 94.6516 85.3819 95.6247 85.123C95.9734 85.006 96.3381 84.9498 96.7043 84.9566C95.4381 85.3898 94.231 85.9931 93.1134 86.7515C90.5761 88.8286 88.4068 91.3553 86.7043 94.2165C84.8939 97.0141 83.4493 100.052 82.4088 103.251C81.5565 105.699 81.102 107.245 81.0225 107.221Z" fill="#455A64"/>
<path d="M99.2162 109.087C99.2654 107.893 99.3754 106.703 99.5457 105.521C99.8151 102.704 99.8531 99.8689 99.6594 97.0455C99.4649 94.2249 98.9772 91.4348 98.2048 88.7247C97.6139 86.6445 97.0685 85.3964 97.1821 85.3607C97.2957 85.325 97.3867 85.6341 97.648 86.1809C98.0194 86.9488 98.3383 87.7433 98.6026 88.5583C99.4961 91.2776 100.05 94.1064 100.25 96.9742C100.451 99.8374 100.356 102.715 99.9662 105.557C99.8561 106.761 99.6042 107.947 99.2162 109.087Z" fill="#455A64"/>
<path d="M97.1818 85.3965C97.2001 86.3247 97.1047 87.2515 96.8977 88.1543C96.5217 90.3574 96.04 92.5395 95.4545 94.6921C94.8782 96.8503 94.1878 98.9734 93.3864 101.052C93.1056 101.929 92.724 102.767 92.25 103.548C92.4247 102.64 92.6835 101.752 93.0227 100.897C93.5455 99.2804 94.2386 97.0338 94.9205 94.5257C95.6023 92.0175 96.125 89.7709 96.5114 88.071C96.6504 87.1587 96.875 86.2628 97.1818 85.3965Z" fill="#455A64"/>
<path d="M92.5796 309.144L93.216 282.042C93.2554 280.022 93.4033 278.006 93.6591 276.003C94.4622 269.87 95.5303 263.847 96.8637 257.935L168.455 251.885C173.784 258.874 176.023 293.489 177.148 312.663C177.148 312.663 134.716 327.795 131.386 327.688C128.057 327.581 128.614 322.267 128.614 322.267L127.864 318.356C127.864 318.356 126.205 323.254 118.693 323.836C111.182 324.419 92.5796 309.144 92.5796 309.144Z" fill="#263238"/>
<path d="M128.557 322.267C128.146 321.309 127.845 320.304 127.659 319.272C127.193 317.382 126.648 314.767 126.08 311.866C125.511 308.966 125 306.351 124.602 304.473C124.333 303.462 124.132 302.433 124 301.394C124.45 302.337 124.786 303.335 125 304.366C125.523 306.232 126.136 308.847 126.659 311.747C127.182 314.648 127.67 317.061 128.068 319.177C128.315 320.19 128.479 321.224 128.557 322.267Z" fill="#455A64"/>
<path d="M141.716 307.278C141.716 307.278 141.614 307.361 141.387 307.48C141.065 307.645 140.731 307.78 140.387 307.884C139.102 308.265 137.761 308.39 136.432 308.252C134.448 308.051 132.519 307.454 130.75 306.493C128.633 305.317 126.621 303.945 124.739 302.392C120.682 299.218 117.034 296.318 114.409 294.19L111.364 291.658C110.951 291.366 110.57 291.027 110.228 290.648C110.659 290.878 111.07 291.149 111.455 291.456L114.659 293.834C117.341 295.866 121.034 298.719 125.091 301.893C126.951 303.419 128.927 304.782 131 305.97C132.69 306.922 134.53 307.546 136.432 307.813C138.21 308.02 140.009 307.837 141.716 307.278Z" fill="#455A64"/>
<path d="M170.978 258.018C171.034 258.357 171.034 258.702 170.978 259.041C170.912 259.966 170.756 260.882 170.512 261.775C169.72 264.767 168.119 267.457 165.902 269.521C163.685 271.585 160.945 272.936 158.012 273.412C157.134 273.569 156.243 273.629 155.353 273.59C155.025 273.602 154.698 273.553 154.387 273.448C154.387 273.341 155.784 273.448 157.932 272.984C160.747 272.412 163.363 271.059 165.507 269.066C167.65 267.073 169.241 264.513 170.114 261.656C170.807 259.457 170.864 258.006 170.978 258.018Z" fill="#455A64"/>
<path d="M170.284 251.719L151.704 212.825C151.704 212.825 140.625 143.797 139.329 142.454C138.523 141.598 131.557 132.718 126.523 126.264C125.386 124.873 124.92 122.995 123.477 122.151C120.636 120.487 117.114 119.869 112.023 120.415C106.579 121.022 92.1249 121.533 92.1249 121.533C92.1249 121.533 67.8181 143.084 72.3977 158.549C80.4545 185.758 90.8068 213.134 100.898 220.361C109.92 226.875 95.9204 257.971 95.9204 257.971L170.284 251.719Z" fill="#C85C8E"/>
<g opacity="0.3">
<path d="M137.136 156.504C130.67 149.717 122.489 145.806 113.511 143.963C114.248 148.775 116.448 153.21 119.784 156.611C122.989 159.678 127.091 161.615 130.273 164.718C133.102 167.488 135.079 171.042 137.284 174.382C139.73 177.922 142.989 180.759 146.761 182.632C145.159 172.504 143.613 163.327 137.136 156.504Z" fill="#0A0A0A"/>
</g>
<path d="M126.137 168.189C126.137 168.189 126.068 168.355 125.875 168.629C125.604 169.044 125.308 169.441 124.989 169.818C123.83 171.178 122.508 172.376 121.057 173.384C118.9 174.903 116.498 175.998 113.966 176.617C112.478 176.992 110.952 177.18 109.421 177.176C107.72 177.192 106.058 176.647 104.671 175.618C103.348 174.561 102.161 173.33 101.137 171.957C100.114 170.681 99.1706 169.433 98.307 168.213C96.7691 166.049 95.3391 163.803 94.0229 161.485C92.8865 159.512 92.0797 157.859 91.5343 156.73C91.2615 156.159 91.0683 155.696 90.9433 155.387C90.8183 155.078 90.7502 154.911 90.7729 154.899C91.1344 155.449 91.4572 156.025 91.7388 156.623C92.3411 157.74 93.2161 159.345 94.3865 161.283C95.557 163.22 96.9888 165.491 98.7388 167.892C99.6138 169.081 100.557 170.341 101.58 171.589C102.571 172.92 103.716 174.118 104.989 175.155C106.28 176.111 107.827 176.618 109.409 176.605C110.904 176.614 112.395 176.442 113.852 176.094C116.335 175.518 118.701 174.488 120.841 173.051C122.794 171.668 124.573 170.035 126.137 168.189Z" fill="#263238"/>
<path d="M95.9092 197.264C95.6922 196.965 95.4948 196.652 95.3183 196.325C94.9547 195.707 94.2615 194.946 93.4774 193.853C93.048 193.206 92.8398 192.427 92.8865 191.642C92.9208 191.246 92.9208 190.848 92.8865 190.453C92.8105 190.053 92.6296 189.682 92.3638 189.383C91.734 188.636 91.241 187.773 90.9092 186.839C90.7191 186.317 90.6377 185.757 90.6706 185.199C90.6959 184.89 90.7804 184.59 90.919 184.317C91.0577 184.043 91.2475 183.801 91.4774 183.606L91.6024 184.129C91.0719 184.017 90.5746 183.774 90.1518 183.42C89.7289 183.067 89.3925 182.613 89.1706 182.096C88.9359 181.553 88.8456 180.954 88.9092 180.361C89.0304 179.868 89.0536 179.354 88.9774 178.851C88.7956 178.305 88.1478 178.007 87.5342 177.663C87.1961 177.474 86.9013 177.21 86.6706 176.89C86.4465 176.538 86.3279 176.124 86.3297 175.701C86.3661 175.008 86.4381 174.318 86.5456 173.633C86.596 173.36 86.564 173.077 86.4541 172.824C86.3441 172.57 86.1617 172.359 85.9319 172.218C85.364 171.983 84.8258 171.676 84.3297 171.303C83.8847 170.905 83.5296 170.408 83.2899 169.849C83.0501 169.29 82.9318 168.682 82.9433 168.07C82.9763 167.543 83.0915 167.025 83.2842 166.536C83.5569 165.669 82.5683 165.265 82.0456 164.718C81.8122 164.463 81.636 164.157 81.5299 163.821C81.4237 163.486 81.3903 163.131 81.4319 162.78C81.4603 162.356 81.5366 161.937 81.6592 161.532C81.6963 161.391 81.7497 161.255 81.8183 161.128C81.8865 161.128 81.6933 161.734 81.6592 162.792C81.6394 163.101 81.684 163.411 81.7899 163.701C81.8959 163.99 82.0606 164.252 82.2728 164.468C82.5228 164.706 82.8751 164.908 83.216 165.205C83.4107 165.369 83.5631 165.582 83.6592 165.823C83.7441 166.089 83.7441 166.377 83.6592 166.643C83.4939 167.105 83.398 167.59 83.3751 168.082C83.376 168.599 83.4846 169.11 83.6933 169.58C83.9019 170.085 84.2257 170.53 84.6365 170.875C85.1179 171.223 85.6366 171.51 86.1819 171.731C86.509 171.91 86.7692 172.199 86.9206 172.551C87.0588 172.905 87.1171 173.287 87.091 173.669C87.091 174.382 86.8638 175.048 86.8865 175.678C86.8934 175.986 86.985 176.285 87.1502 176.54C87.3154 176.795 87.5474 176.995 87.8183 177.116C88.3524 177.472 89.1706 177.758 89.5115 178.661C89.6395 179.248 89.6395 179.857 89.5115 180.444C89.4625 180.927 89.537 181.416 89.7274 181.859C89.9067 182.289 90.1819 182.667 90.5299 182.963C90.8778 183.259 91.2885 183.463 91.7274 183.559L92.3524 183.677L91.8524 184.082C91.5296 184.412 91.315 184.84 91.2395 185.306C91.1639 185.771 91.2313 186.25 91.4319 186.673C91.7368 187.544 92.1912 188.35 92.7728 189.05C93.0707 189.422 93.2705 189.869 93.3524 190.346C93.3975 190.777 93.3975 191.211 93.3524 191.642C93.2852 192.34 93.4497 193.041 93.8183 193.627C94.5228 194.697 95.2047 195.541 95.5228 196.206C95.7073 196.534 95.8379 196.891 95.9092 197.264Z" fill="#263238"/>
<g opacity="0.3">
<path d="M146.511 195.565C142.216 198.679 137.795 201.853 132.716 203.113C124.966 205.039 116.92 202.269 109.466 199.321C109.466 199.321 117.67 208.938 133.329 205.526C143.727 203.256 146.511 195.565 146.511 195.565Z" fill="#0A0A0A"/>
</g>
<g opacity="0.3">
<path d="M143.898 207.309C140.384 210.754 135.82 212.791 131.011 213.062C126.238 213.312 121.471 212.464 117.045 210.578C117.045 210.578 126.284 218.411 134.318 215.927C142.352 213.442 143.898 207.309 143.898 207.309Z" fill="#0A0A0A"/>
</g>
<g opacity="0.3">
<path d="M127.273 193.092C122.012 194.281 114.352 193.199 109.761 190.287L109.114 189.978C111.266 192.318 113.898 194.115 116.812 195.233C119.727 196.351 122.846 196.76 125.934 196.43C129.022 196.101 131.997 195.04 134.635 193.329C137.273 191.618 139.504 189.301 141.159 186.554C136.981 189.657 132.264 191.878 127.273 193.092Z" fill="#0A0A0A"/>
</g>
<g opacity="0.3">
<path d="M126.25 168.712C125.796 168.593 125.409 169.045 125.114 169.437C122.844 172.429 119.766 174.637 116.28 175.774C112.794 176.91 109.061 176.922 105.568 175.808L106.705 177.116C108.295 178.37 110.141 179.222 112.099 179.606C114.056 179.989 116.072 179.894 117.989 179.327C120.091 178.77 122.01 177.63 123.544 176.028C125.078 174.425 126.17 172.419 126.705 170.222C126.83 169.651 126.796 168.867 126.25 168.712Z" fill="#0A0A0A"/>
</g>
<g opacity="0.3">
<path d="M152.614 212.278L136.83 219.41C137.099 220.002 137.513 220.509 138.03 220.881C138.547 221.252 139.148 221.474 139.773 221.526C140.055 222.362 140.506 223.125 141.093 223.764C141.681 224.403 142.393 224.904 143.181 225.231C143.969 225.559 144.815 225.706 145.661 225.664C146.508 225.621 147.337 225.39 148.091 224.985C148.363 226.097 148.937 227.103 149.744 227.881C150.551 228.659 151.555 229.176 152.637 229.369C153.719 229.563 154.831 229.425 155.839 228.972C156.847 228.518 157.708 227.769 158.318 226.815C156.424 221.942 154.523 217.096 152.614 212.278Z" fill="#0A0A0A"/>
</g>
<g opacity="0.3">
<path d="M106.466 214.988C105.671 214.122 104.976 213.161 104.398 212.123C104.164 211.183 103.829 210.274 103.398 209.413C102.591 208.307 101.034 208.082 100.194 207.036C99.3526 205.989 99.489 204.337 98.7163 203.208C98.3072 202.614 97.6822 202.198 97.3185 201.568C96.9829 200.622 96.743 199.642 96.6026 198.643C95.8282 196.942 94.859 195.345 93.7163 193.889C92.7163 192.236 93.1481 192.189 93.0458 190.227L92.739 189.633C92.4322 191.915 92.1708 194.459 93.4776 196.325C94.2958 197.514 95.6708 198.299 95.9776 199.701C96.2162 200.831 95.6822 202.079 96.1935 203.125C96.7049 204.171 97.739 204.313 98.3526 205.122C98.9663 205.93 99.0231 207.345 99.614 208.331C100.205 209.318 101.466 209.817 102.353 210.625C103.001 211.292 103.549 212.057 103.978 212.896L107.091 218.34C107.294 217.776 107.343 217.163 107.232 216.571C107.122 215.98 106.857 215.431 106.466 214.988Z" fill="#0A0A0A"/>
</g>
<path d="M154.273 240.687C154.273 240.806 152.466 240.295 149.512 240.093C147.789 239.969 146.059 239.997 144.341 240.176C140.125 240.609 136.033 241.918 132.307 244.028C130.788 244.882 129.339 245.868 127.978 246.975C125.648 248.877 124.443 250.339 124.353 250.256C124.579 249.867 124.85 249.507 125.159 249.186C125.485 248.766 125.838 248.368 126.216 247.998C126.691 247.498 127.192 247.026 127.716 246.583C129.066 245.413 130.515 244.375 132.046 243.481C135.814 241.272 139.991 239.935 144.296 239.558C146.042 239.389 147.799 239.389 149.546 239.558C150.217 239.618 150.884 239.713 151.546 239.843C152.048 239.925 152.546 240.04 153.034 240.188C153.468 240.293 153.885 240.461 154.273 240.687Z" fill="#263238"/>
<path d="M81.8181 142.703C81.9545 142.703 81.4431 145.461 81.159 148.896C80.9592 150.337 80.8794 151.792 80.9204 153.247C81.0113 154.341 81.284 154.983 81.1931 155.03C80.797 154.546 80.5582 153.942 80.5113 153.306C80.3332 151.821 80.3523 150.317 80.5681 148.837C80.8863 145.378 81.6704 142.644 81.8181 142.703Z" fill="#263238"/>
<path d="M114.773 149.622C114.441 149.413 114.139 149.157 113.875 148.861C113.11 148.115 112.389 147.321 111.716 146.483C109.442 143.703 107.879 140.366 107.17 136.784C106.499 133.14 107.134 129.365 108.955 126.181C109.511 125.234 110.205 124.384 111.011 123.661C111.591 123.149 111.943 122.935 111.966 122.971C110.948 123.995 110.059 125.149 109.318 126.406C107.669 129.531 107.115 133.159 107.75 136.665C108.468 140.143 109.95 143.399 112.08 146.174C113.636 148.362 114.773 149.538 114.773 149.622Z" fill="#263238"/>
<g opacity="0.3">
<path d="M107.023 252.788C112.159 254.452 117.773 252.788 122.545 250.185C127.318 247.582 131.364 243.398 136.5 241.71C139.318 240.782 148.92 238.857 153.625 240.521C154.034 239.606 152.852 238.524 152.079 237.93C150.978 237.363 149.772 237.055 148.545 237.026C135.636 235.992 124.579 248.497 111.648 248.14C110.51 248.015 109.361 248.067 108.239 248.295C107.667 248.414 107.144 248.712 106.738 249.149C106.332 249.587 106.063 250.143 105.966 250.744C105.886 251.932 107.227 253.121 108.239 252.491" fill="#0A0A0A"/>
</g>
<path d="M159.262 202.067C158.478 200.433 157.609 198.846 156.659 197.312C155.51 196.764 154.321 196.315 153.103 195.969C151.755 195.964 150.441 196.41 149.353 197.241C147.603 198.786 145.466 203.267 145.466 203.267C145.466 203.267 145.057 204.955 147.603 205.514C150.148 206.073 150.693 205.514 150.693 205.514L146.398 210.411C146.398 210.411 136.091 211.541 136.489 215.879C136.489 215.879 134.728 218.53 136.489 219.303C138.046 220.004 145.875 219.457 147.557 219.303C146.296 219.422 141.682 219.945 141.455 221.882C141.193 224.129 141.864 223.558 141.864 223.558L152.978 222.726C152.978 222.726 150.432 224.545 151.103 226.364C151.155 226.596 151.256 226.812 151.397 226.999C151.538 227.186 151.717 227.338 151.921 227.445C152.125 227.551 152.348 227.61 152.576 227.616C152.804 227.622 153.03 227.576 153.239 227.481L158.387 224.557L159.273 219.921C159.273 219.921 160.068 203.885 159.262 202.067Z" fill="#FFBE9D"/>
<path d="M154.784 200.819C154.875 200.985 153.648 201.817 152.387 203.196C151.125 204.575 150.477 205.989 150.318 205.918C150.52 204.713 151.095 203.61 151.955 202.78C152.674 201.828 153.666 201.141 154.784 200.819Z" fill="#EB996E"/>
<path d="M156.602 208.343C155.777 209.109 155.017 209.948 154.33 210.851C153.625 211.881 152.866 212.869 152.057 213.811C151.539 214.365 150.941 214.83 150.284 215.19C149.572 215.561 148.802 215.798 148.012 215.891C146.398 216.093 144.898 215.963 143.546 216.01L139.921 216.081C138.802 216.165 137.677 216.117 136.568 215.939C137.671 215.762 138.783 215.662 139.898 215.642C140.932 215.582 142.171 215.499 143.534 215.44C144.898 215.38 146.421 215.44 147.932 215.285C149.36 215.128 150.693 214.46 151.705 213.395C152.659 212.42 153.387 211.386 154.08 210.566C154.724 209.61 155.593 208.845 156.602 208.343Z" fill="#EB996E"/>
<path d="M157.171 213.359C157.09 214.003 156.842 214.611 156.455 215.119C155.65 216.446 154.535 217.538 153.216 218.292C151.869 218.958 150.409 219.337 148.921 219.41C148.319 219.512 147.705 219.512 147.103 219.41C147.661 219.155 148.256 218.998 148.864 218.946C150.271 218.772 151.643 218.371 152.932 217.758C154.172 217.04 155.255 216.06 156.114 214.881C156.438 214.353 156.791 213.845 157.171 213.359Z" fill="#EB996E"/>
<path d="M158.477 218.483C158.557 218.483 158.477 218.994 158.216 219.671C157.809 220.597 157.173 221.393 156.375 221.977C155.582 222.566 154.651 222.919 153.682 223C152.943 223 152.545 222.928 152.545 222.857C153.816 222.717 155.031 222.239 156.075 221.47C157.119 220.7 157.958 219.663 158.511 218.459L158.477 218.483Z" fill="#EB996E"/>
<path d="M110.432 128.689C110.862 127.033 111.702 125.526 112.867 124.32C114.032 123.113 115.482 122.25 117.068 121.818C119.956 120.919 123.067 121.257 125.716 122.757C128.807 124.611 132.898 126.323 135.784 129.295C138.974 132.575 141.36 136.612 142.739 141.063L144.898 148.064L150.512 153.77L132.875 119.298L145.841 121.568C145.841 121.568 168.193 159.904 170.284 168.331C172.705 178.091 171.955 186.447 169.284 190.108C167.523 192.486 161.796 192.2 161.796 192.2C161.796 192.2 158.739 193.603 152.568 187.053C144.08 177.996 126.137 157.693 126.137 157.693C126.137 157.693 106.603 143.428 110.432 128.689Z" fill="#FFBE9D"/>
<path d="M167.977 178.768C167.903 176.816 167.555 174.885 166.943 173.039C166.245 171.067 165.165 169.266 163.772 167.749C162.261 165.978 159.829 164.992 157.841 162.995C154.136 158.965 151.022 155.185 148.636 152.475L145.886 149.265C145.53 148.894 145.2 148.497 144.897 148.076C145.318 148.367 145.701 148.715 146.034 149.111C146.738 149.824 147.727 150.87 148.932 152.189C151.352 154.816 154.613 158.573 158.25 162.567C160.091 164.445 162.568 165.479 164.147 167.321C165.572 168.911 166.657 170.799 167.329 172.861C167.782 174.24 168.031 175.683 168.068 177.14C168.095 177.536 168.095 177.933 168.068 178.329C168.022 178.626 168 178.768 167.977 178.768Z" fill="#EB996E"/>
<path d="M164.034 180.278C164.102 180.278 164.397 180.67 164.795 181.407C165.375 182.354 165.84 183.372 166.182 184.438C166.348 185.084 166.325 185.768 166.113 186.4C165.944 186.907 165.655 187.361 165.272 187.719C164.602 188.325 164.034 188.361 164.022 188.29C164.011 188.218 164.466 188.016 164.977 187.41C165.299 187.033 165.525 186.578 165.634 186.085C165.744 185.593 165.732 185.079 165.602 184.593C165.276 183.573 164.897 182.573 164.466 181.597C164.113 180.837 163.954 180.337 164.034 180.278Z" fill="#EB996E"/>
<path d="M132.875 119.262L132.33 113.676L132.193 97.1647L134.012 88.9746C134.012 88.9746 135.364 88.5704 136.284 91.2212C137.205 93.872 136.284 99.1854 136.284 99.1854L136.716 105.652L139.977 97.3311L140.977 78.8826C142.461 81.1777 143.819 83.5589 145.046 86.0147C145.796 87.667 148.921 97.9017 148.921 97.9017C148.921 97.9017 150.057 98.5079 150.284 101.159C150.264 102.117 150.593 103.048 151.205 103.762C151.744 104.262 152.118 104.928 152.273 105.664C152.362 106.051 152.356 106.455 152.257 106.839C152.158 107.223 151.968 107.575 151.705 107.863C150.284 109.289 145.784 121.509 145.784 121.509" fill="#FFBE9D"/>
<path d="M145.841 121.533C145.867 121.374 145.909 121.219 145.966 121.069C146.08 120.736 146.227 120.308 146.42 119.773C146.83 118.644 147.432 116.98 148.273 114.864C148.682 113.818 149.159 112.653 149.705 111.393C149.977 110.763 150.261 110.121 150.591 109.444C150.761 109.123 150.932 108.778 151.136 108.445C151.337 108.105 151.569 107.786 151.83 107.494C152.024 107.176 152.143 106.813 152.176 106.437C152.21 106.061 152.157 105.681 152.023 105.331C151.89 104.95 151.69 104.599 151.432 104.297C151.098 103.993 150.817 103.631 150.602 103.227C150.257 102.35 150.061 101.416 150.023 100.469C149.951 99.5529 149.544 98.7013 148.886 98.0916L148.795 98.0203V97.9371C147.886 95.0248 146.898 91.8747 145.795 88.582C145.523 87.7618 145.239 86.9179 144.909 86.1214C144.58 85.325 144.125 84.5286 143.693 83.7441C142.807 82.1591 141.856 80.5742 140.841 78.9893L141.364 78.8466C141.125 83.4469 140.864 88.3562 140.591 93.3487C140.511 94.6681 140.443 95.9876 140.375 97.2833V97.3427L137.114 105.664L136.636 106.852L136.557 105.557C136.409 103.346 136.261 101.182 136.125 99.0782V99.0069C136.482 97.0733 136.612 95.1013 136.511 93.1347C136.472 92.2164 136.247 91.3171 135.852 90.4958C135.664 90.1131 135.414 89.7672 135.114 89.4736C134.983 89.3464 134.829 89.2491 134.661 89.1877C134.493 89.1263 134.314 89.1022 134.136 89.117L134.318 88.9149C133.659 91.8153 133.045 94.5453 132.477 97.105C132.477 104.118 132.477 109.765 132.477 113.604C132.636 115.399 132.75 116.79 132.83 117.776L132.909 118.858C132.924 118.976 132.924 119.096 132.909 119.215C132.87 119.1 132.847 118.98 132.841 118.858L132.705 117.788C132.591 116.802 132.443 115.411 132.239 113.64C132.182 109.788 132.102 104.13 132 97.1288C132.557 94.5731 133.136 91.8272 133.784 88.9268V88.7603H133.932C134.189 88.7176 134.453 88.736 134.703 88.8142C134.952 88.8924 135.182 89.0284 135.375 89.2121C135.735 89.5475 136.032 89.9507 136.25 90.4007C136.684 91.2824 136.932 92.2512 136.977 93.2417C137.089 95.2591 136.963 97.2831 136.602 99.2684V99.1971C136.739 101.301 136.886 103.464 137.034 105.664L136.477 105.568C137.545 102.858 138.625 100.077 139.739 97.2476V97.3427C139.807 96.047 139.886 94.7276 139.955 93.4081C140.227 88.3919 140.5 83.5063 140.75 78.9061V78.0027L141.227 78.7515C142.239 80.3563 143.193 81.9491 144.08 83.5063C144.523 84.3146 144.943 85.1111 145.318 85.8837C145.693 86.6564 145.932 87.5717 146.216 88.4037C147.352 91.7202 148.273 94.8702 149.159 97.8063L149.034 97.6518C149.429 97.9774 149.756 98.3834 149.996 98.8452C150.236 99.3069 150.385 99.8148 150.432 100.338C150.46 101.238 150.632 102.126 150.943 102.965C151.146 103.334 151.403 103.667 151.705 103.952C151.993 104.304 152.22 104.706 152.375 105.141C152.531 105.56 152.586 106.014 152.537 106.461C152.487 106.909 152.334 107.337 152.091 107.708C151.601 108.269 151.191 108.902 150.875 109.586C150.534 110.24 150.239 110.882 149.955 111.512C149.398 112.701 148.909 113.889 148.477 114.947C147.636 117.004 146.977 118.632 146.511 119.797L145.989 121.069C145.955 121.229 145.906 121.384 145.841 121.533Z" fill="#EB996E"/>
<path d="M145.591 100.291C145.591 100.291 145.739 100.124 145.898 99.8034C146.11 99.3371 146.2 98.8203 146.159 98.3057C146.068 96.9624 145.875 95.0605 145.648 92.9803C145.193 88.8199 144.625 85.4678 144.796 85.4321C145.564 87.8542 146.048 90.3648 146.239 92.909C146.456 94.703 146.57 96.5092 146.58 98.3176C146.581 98.8964 146.41 99.4613 146.091 99.9342C145.83 100.267 145.602 100.315 145.591 100.291Z" fill="#EB996E"/>
<path d="M138.773 156.326C136.928 155.016 134.995 153.848 132.989 152.831C130.903 152.011 128.765 151.343 126.591 150.834C128.881 150.734 131.16 151.224 133.227 152.26C135.369 153.115 137.274 154.512 138.773 156.326Z" fill="#EB996E"/>
<path d="M500 499.787C500 499.953 388.068 500.096 250 500.096C111.932 500.096 0 499.953 0 499.787C0 499.62 111.909 499.478 250 499.478C388.091 499.478 500 499.609 500 499.787Z" fill="#263238"/>
</svg>
