<svg width="188" height="163" viewBox="0 0 188 163" fill="none" xmlns="http://www.w3.org/2000/svg">
<g id="Planes Presenciales">
<g id="Lines">
<path id="Vector" d="M157.958 78.0265C157.388 78.0892 156.848 78.3135 156.402 78.673C155.955 79.0325 155.621 79.5121 155.438 80.0553L134.049 76.4143C134.086 76.0631 134.086 75.709 134.049 75.3578C133.895 73.9869 133.204 72.7328 132.127 71.8707C131.05 71.0087 129.676 70.609 128.304 70.7594C128.17 70.7594 128.041 70.7991 127.912 70.819C126.424 65.6303 124.128 57.4605 122.387 51.2847C123.069 50.96 123.604 50.3907 123.886 49.6897C124.168 48.9888 124.176 48.2074 123.909 47.5008C123.641 46.7941 123.118 46.2137 122.443 45.8749C121.768 45.536 120.99 45.4634 120.263 45.6715C119.537 45.8795 118.915 46.353 118.522 46.9981C118.128 47.6431 117.992 48.4124 118.139 49.1535C118.287 49.8945 118.707 50.553 119.318 50.9983C119.928 51.4437 120.683 51.6433 121.434 51.5576C122.178 54.1965 123.339 58.3137 124.505 62.4309C125.383 65.5361 126.256 68.6264 126.96 71.0967C125.9 71.517 125.008 72.2738 124.42 73.2506C123.832 74.2275 123.581 75.3704 123.706 76.5036C123.756 76.978 123.874 77.4425 124.058 77.8826L106.543 86.5783C106.092 85.8139 105.495 85.1461 104.786 84.6131C104.076 84.0802 103.269 83.6927 102.409 83.4728C101.549 83.253 100.655 83.2051 99.7765 83.332C98.8983 83.4588 98.0539 83.758 97.2916 84.2122L79.2753 58.3732C80.6841 57.2818 81.7633 55.8217 82.3933 54.1547C83.0233 52.4876 83.1795 50.6787 82.8446 48.9284C82.5097 47.178 81.6968 45.5545 80.496 44.2378C79.2952 42.921 77.7533 41.9623 76.0411 41.468L79.4192 27.053C79.5958 27.0678 79.7733 27.0678 79.9499 27.053C80.6827 26.9754 81.362 26.633 81.8603 26.0902C82.3586 25.5473 82.6417 24.8413 82.6564 24.1046C82.6712 23.3679 82.4166 22.6511 81.9405 22.0887C81.4644 21.5263 80.7994 21.157 80.0703 21.0501C79.3412 20.9432 78.5982 21.106 77.9806 21.5079C77.363 21.9099 76.9133 22.5234 76.7159 23.2333C76.5185 23.9433 76.587 24.7008 76.9084 25.3639C77.2298 26.027 77.7822 26.5499 78.4618 26.8347L75.0837 41.2696C74.1661 41.0995 73.2284 41.0661 72.3009 41.1704C69.7542 41.4547 67.4243 42.7379 65.8228 44.7384C64.2213 46.7389 63.4791 49.2931 63.7591 51.8403C63.7888 52.0933 63.8384 52.3364 63.8831 52.5943L42.6524 57.8077C42.2106 56.5567 41.3069 55.5222 40.1266 54.9164C38.9464 54.3106 37.579 54.1795 36.3051 54.5499C35.0312 54.9203 33.9473 55.7642 33.2758 56.9084C32.6044 58.0526 32.3963 59.4104 32.6942 60.7032C32.9921 61.996 33.7734 63.1257 34.8779 63.8607C35.9824 64.5957 37.3263 64.8801 38.6338 64.6557C39.9413 64.4312 41.1134 63.7149 41.9096 62.6537C42.7057 61.5924 43.0656 60.2668 42.9153 58.9486C42.9153 58.8891 42.9153 58.8296 42.8855 58.77L64.1212 53.5566C64.5446 54.9799 65.2916 56.2859 66.3036 57.3726C67.3156 58.4593 68.5653 59.2972 69.9549 59.8208C71.3445 60.3443 72.8363 60.5394 74.3138 60.3906C75.7913 60.2419 77.2144 59.7535 78.4717 58.9635L96.4881 84.8025C95.57 85.5453 94.8631 86.5162 94.4383 87.6181C94.0135 88.7201 93.8856 89.9143 94.0674 91.0811C94.2492 92.248 94.7344 93.3466 95.4744 94.267C96.2144 95.1874 97.1831 95.8973 98.2837 96.3256L93.864 110.636C93.0598 110.471 92.2281 110.499 91.4365 110.716C90.6449 110.933 89.9159 111.335 89.3089 111.888C88.702 112.44 88.2343 113.129 87.9441 113.897C87.6538 114.665 87.5491 115.49 87.6386 116.306C87.6775 116.667 87.7557 117.023 87.8718 117.368L77.2515 122.026C76.8383 121.417 76.2161 120.981 75.5029 120.8C74.7897 120.619 74.0349 120.706 73.3815 121.044C72.7282 121.383 72.2217 121.949 71.9579 122.636C71.6941 123.323 71.6915 124.083 71.9504 124.771C72.2093 125.46 72.7118 126.03 73.3628 126.373C74.0137 126.716 74.7679 126.808 75.4824 126.633C76.1968 126.457 76.822 126.025 77.2395 125.419C77.657 124.813 77.8377 124.075 77.7475 123.345C77.7311 123.206 77.7046 123.068 77.6681 122.933L88.2984 118.246C88.7991 119.137 89.5509 119.862 90.4602 120.329C91.3695 120.797 92.3962 120.986 93.4126 120.875C94.679 120.737 95.8493 120.135 96.6964 119.183L109.44 128.638C109.167 129.162 109.056 129.757 109.122 130.344C109.196 131.024 109.498 131.659 109.979 132.145C110.459 132.631 111.09 132.94 111.769 133.022C112.448 133.103 113.134 132.953 113.716 132.594C114.299 132.236 114.742 131.691 114.975 131.048C115.208 130.406 115.217 129.703 114.999 129.055C114.782 128.407 114.351 127.851 113.778 127.479C113.204 127.107 112.521 126.94 111.841 127.005C111.16 127.071 110.522 127.365 110.03 127.839L97.2916 118.39C97.6814 117.747 97.9269 117.027 98.0111 116.279C98.0954 115.532 98.0164 114.776 97.7796 114.062C97.5428 113.348 97.1539 112.695 96.6397 112.146C96.1255 111.597 95.4983 111.167 94.8015 110.884L99.2213 96.5686C99.9607 96.7398 100.723 96.7868 101.478 96.7075C102.517 96.5926 103.514 96.2382 104.393 95.6723C105.271 95.1063 106.006 94.3443 106.54 93.446C107.073 92.5478 107.391 91.538 107.468 90.4961C107.546 89.4541 107.38 88.4084 106.984 87.4414L124.505 78.7408C125.046 79.5771 125.816 80.2403 126.723 80.6515C127.63 81.0628 128.636 81.2047 129.622 81.0605C130.608 80.9163 131.531 80.4919 132.282 79.838C133.034 79.184 133.581 78.328 133.86 77.3717L155.274 81.0176C155.274 81.1218 155.274 81.2309 155.274 81.3351C155.339 81.9294 155.578 82.4913 155.962 82.9495C156.346 83.4076 156.858 83.7416 157.432 83.909C158.005 84.0764 158.616 84.0698 159.186 83.8899C159.756 83.7101 160.26 83.3651 160.634 82.8987C161.008 82.4323 161.236 81.8654 161.287 81.2697C161.339 80.6741 161.212 80.0766 160.924 79.5528C160.636 79.029 160.199 78.6025 159.668 78.3272C159.138 78.052 158.537 77.9404 157.943 78.0066L157.958 78.0265ZM120.869 46.5426C121.266 46.499 121.668 46.5742 122.023 46.7588C122.378 46.9434 122.67 47.229 122.863 47.5797C123.056 47.9303 123.14 48.3301 123.106 48.7287C123.071 49.1273 122.919 49.5067 122.669 49.8191C122.419 50.1314 122.082 50.3627 121.701 50.4836C121.319 50.6045 120.911 50.6097 120.527 50.4984C120.142 50.3872 119.8 50.1646 119.542 49.8587C119.284 49.5528 119.122 49.1773 119.078 48.7797C119.021 48.246 119.177 47.7113 119.512 47.2922C119.848 46.8731 120.335 46.6037 120.869 46.5426ZM81.6266 23.7989C81.6702 24.1966 81.5949 24.5983 81.4103 24.9533C81.2257 25.3082 80.9401 25.6005 80.5895 25.7932C80.2388 25.9858 79.839 26.0703 79.4404 26.0358C79.0418 26.0014 78.6624 25.8495 78.35 25.5995C78.0377 25.3495 77.8065 25.0125 77.6855 24.6312C77.5646 24.2498 77.5595 23.8411 77.6707 23.4568C77.7819 23.0725 78.0045 22.7298 78.3104 22.472C78.6163 22.2141 78.9918 22.0528 79.3894 22.0082C79.9234 21.9497 80.4588 22.1054 80.8782 22.4411C81.2976 22.7768 81.5667 23.2651 81.6266 23.7989ZM41.943 59.0181C42.0361 59.8471 41.8812 60.6851 41.4979 61.4261C41.1145 62.167 40.52 62.7776 39.7895 63.1806C39.059 63.5835 38.2254 63.7607 37.3942 63.6897C36.563 63.6187 35.7715 63.3027 35.1199 62.7817C34.4683 62.2608 33.9859 61.5582 33.7338 60.763C33.4817 59.9677 33.4711 59.1156 33.7034 58.3143C33.9358 57.5131 34.4006 56.7988 35.0391 56.2618C35.6775 55.7248 36.4609 55.3893 37.2901 55.2977C38.3984 55.1822 39.5073 55.5095 40.3752 56.2083C41.2431 56.907 41.7996 57.9206 41.9232 59.028L41.943 59.0181ZM64.7611 51.6915C64.5725 49.9872 64.8934 48.2654 65.6833 46.7435C66.4732 45.2216 67.6965 43.9681 69.1987 43.1414C70.7009 42.3147 72.4145 41.9519 74.1228 42.099C75.8312 42.246 77.4575 42.8962 78.7964 43.9674C80.1352 45.0386 81.1264 46.4827 81.6446 48.1172C82.1629 49.7516 82.1849 51.5031 81.7079 53.15C81.2309 54.797 80.2763 56.2655 78.9648 57.3701C77.6533 58.4746 76.0438 59.1655 74.3397 59.3554C73.2065 59.4837 72.0591 59.3876 70.9631 59.0724C69.8671 58.7571 68.8439 58.229 67.9521 57.5182C67.0602 56.8074 66.3172 55.9279 65.7654 54.9298C65.2136 53.9317 64.8639 52.8347 64.7363 51.7014L64.7611 51.6915ZM76.7455 123.449C76.7891 123.847 76.7138 124.249 76.5292 124.604C76.3447 124.959 76.059 125.251 75.7084 125.443C75.3578 125.636 74.9579 125.721 74.5593 125.686C74.1607 125.652 73.7813 125.5 73.469 125.25C73.1566 125 72.9254 124.663 72.8045 124.281C72.6836 123.9 72.6784 123.491 72.7896 123.107C72.9008 122.723 73.1235 122.38 73.4294 122.122C73.7353 121.864 74.1107 121.703 74.5083 121.659C75.0399 121.607 75.5702 121.767 75.9844 122.104C76.3985 122.441 76.6631 122.928 76.7207 123.459L76.7455 123.449ZM93.2886 119.883C92.4596 119.975 91.6219 119.819 90.8815 119.435C90.1412 119.051 89.5313 118.456 89.1291 117.725C88.7269 116.995 88.5505 116.161 88.6221 115.33C88.6937 114.499 89.0102 113.708 89.5315 113.057C90.0528 112.406 90.7555 111.924 91.5507 111.672C92.3458 111.421 93.1978 111.41 93.9988 111.643C94.7998 111.876 95.5137 112.341 96.0504 112.979C96.5871 113.617 96.9224 114.401 97.0139 115.23C97.0758 115.783 97.0277 116.342 96.8725 116.876C96.7173 117.41 96.4579 117.908 96.1093 118.342C95.7607 118.775 95.3298 119.135 94.8415 119.401C94.3531 119.668 93.8169 119.835 93.2638 119.893L93.2886 119.883ZM111.885 127.988C112.283 127.944 112.685 128.02 113.04 128.204C113.395 128.389 113.687 128.675 113.88 129.025C114.072 129.376 114.157 129.776 114.122 130.174C114.088 130.573 113.936 130.952 113.686 131.265C113.436 131.577 113.099 131.808 112.717 131.929C112.336 132.05 111.927 132.055 111.543 131.944C111.159 131.833 110.816 131.61 110.558 131.304C110.3 130.998 110.139 130.623 110.095 130.225C110.038 129.697 110.192 129.167 110.522 128.751C110.853 128.334 111.333 128.064 111.86 127.998L111.885 127.988ZM106.488 89.3661C106.614 90.4991 106.4 91.6439 105.875 92.6558C105.35 93.6676 104.537 94.501 103.538 95.0506C102.539 95.6002 101.4 95.8412 100.264 95.7433C99.1285 95.6454 98.0472 95.2129 97.1573 94.5005C96.2673 93.7881 95.6085 92.8278 95.2643 91.7411C94.9201 90.6543 94.9059 89.4898 95.2234 88.395C95.541 87.3001 96.1761 86.324 97.0484 85.59C97.9207 84.8561 98.991 84.3973 100.124 84.2717C101.641 84.113 103.158 84.5607 104.346 85.5169C105.534 86.4732 106.295 87.8605 106.464 89.376L106.488 89.3661ZM124.703 76.3846C124.616 75.5563 124.775 74.7207 125.163 73.9834C125.55 73.2461 126.147 72.6402 126.879 72.2423C127.611 71.8443 128.444 71.6723 129.273 71.7478C130.103 71.8234 130.891 72.1431 131.539 72.6667C132.186 73.1902 132.664 73.8941 132.912 74.6893C133.16 75.4844 133.166 76.3351 132.93 77.1339C132.695 77.9327 132.227 78.6437 131.588 79.1769C130.948 79.7101 130.164 80.0417 129.336 80.1297C128.785 80.1904 128.227 80.1418 127.695 79.9869C127.163 79.832 126.666 79.5738 126.233 79.2269C125.801 78.8801 125.441 78.4514 125.174 77.9654C124.907 77.4794 124.739 76.9456 124.678 76.3945L124.703 76.3846ZM156.301 81.2359C156.257 80.8382 156.333 80.4365 156.517 80.0816C156.702 79.7266 156.988 79.4343 157.338 79.2416C157.689 79.049 158.089 78.9645 158.487 78.999C158.886 79.0335 159.265 79.1853 159.578 79.4353C159.89 79.6853 160.121 80.0223 160.242 80.4037C160.363 80.785 160.368 81.1937 160.257 81.578C160.146 81.9623 159.923 82.305 159.617 82.5628C159.311 82.8207 158.936 82.9821 158.538 83.0266C158.273 83.0591 158.003 83.0388 157.746 82.9668C157.488 82.8947 157.247 82.7724 157.037 82.6069C156.826 82.4414 156.651 82.2359 156.521 82.0023C156.39 81.7687 156.307 81.5116 156.276 81.2458L156.301 81.2359Z" fill="#C85C8E"/>
<g id="Group" opacity="0.7">
<path id="Vector_2" d="M157.958 78.0265C157.388 78.0892 156.848 78.3135 156.402 78.673C155.955 79.0325 155.621 79.5121 155.438 80.0553L134.049 76.4143C134.086 76.0631 134.086 75.709 134.049 75.3578C133.895 73.9869 133.204 72.7328 132.127 71.8707C131.05 71.0087 129.676 70.609 128.304 70.7594C128.17 70.7594 128.041 70.7991 127.912 70.819C126.424 65.6303 124.128 57.4605 122.387 51.2847C123.069 50.96 123.604 50.3907 123.886 49.6897C124.168 48.9888 124.176 48.2074 123.909 47.5008C123.641 46.7941 123.118 46.2137 122.443 45.8749C121.768 45.536 120.99 45.4634 120.263 45.6715C119.537 45.8795 118.915 46.353 118.522 46.9981C118.128 47.6431 117.992 48.4124 118.139 49.1535C118.287 49.8945 118.707 50.553 119.318 50.9983C119.928 51.4437 120.683 51.6433 121.434 51.5576C122.178 54.1965 123.339 58.3137 124.505 62.4309C125.383 65.5361 126.256 68.6264 126.96 71.0967C125.9 71.517 125.008 72.2738 124.42 73.2506C123.832 74.2275 123.581 75.3704 123.706 76.5036C123.756 76.978 123.874 77.4425 124.058 77.8826L106.543 86.5783C106.092 85.8139 105.495 85.1461 104.786 84.6131C104.076 84.0802 103.269 83.6927 102.409 83.4728C101.549 83.253 100.655 83.2051 99.7765 83.332C98.8983 83.4588 98.0539 83.758 97.2916 84.2122L79.2753 58.3732C80.6841 57.2818 81.7633 55.8217 82.3933 54.1547C83.0233 52.4876 83.1795 50.6787 82.8446 48.9284C82.5097 47.178 81.6968 45.5545 80.496 44.2378C79.2952 42.921 77.7533 41.9623 76.0411 41.468L79.4192 27.053C79.5958 27.0678 79.7733 27.0678 79.9499 27.053C80.6827 26.9754 81.362 26.633 81.8603 26.0902C82.3586 25.5473 82.6417 24.8413 82.6564 24.1046C82.6712 23.3679 82.4166 22.6511 81.9405 22.0887C81.4644 21.5263 80.7994 21.157 80.0703 21.0501C79.3412 20.9432 78.5982 21.106 77.9806 21.5079C77.363 21.9099 76.9133 22.5234 76.7159 23.2333C76.5185 23.9433 76.587 24.7008 76.9084 25.3639C77.2298 26.027 77.7822 26.5499 78.4618 26.8347L75.0837 41.2696C74.1661 41.0995 73.2284 41.0661 72.3009 41.1704C69.7542 41.4547 67.4243 42.7379 65.8228 44.7384C64.2213 46.7389 63.4791 49.2931 63.7591 51.8403C63.7888 52.0933 63.8384 52.3364 63.8831 52.5943L42.6524 57.8077C42.2106 56.5567 41.3069 55.5222 40.1266 54.9164C38.9464 54.3106 37.579 54.1795 36.3051 54.5499C35.0312 54.9203 33.9473 55.7642 33.2758 56.9084C32.6044 58.0526 32.3963 59.4104 32.6942 60.7032C32.9921 61.996 33.7734 63.1257 34.8779 63.8607C35.9824 64.5957 37.3263 64.8801 38.6338 64.6557C39.9413 64.4312 41.1134 63.7149 41.9096 62.6537C42.7057 61.5924 43.0656 60.2668 42.9153 58.9486C42.9153 58.8891 42.9153 58.8296 42.8855 58.77L64.1212 53.5566C64.5446 54.9799 65.2916 56.2859 66.3036 57.3726C67.3156 58.4593 68.5653 59.2972 69.9549 59.8208C71.3445 60.3443 72.8363 60.5394 74.3138 60.3906C75.7913 60.2419 77.2144 59.7535 78.4717 58.9635L96.4881 84.8025C95.57 85.5453 94.8631 86.5162 94.4383 87.6181C94.0135 88.7201 93.8856 89.9143 94.0674 91.0811C94.2492 92.248 94.7344 93.3466 95.4744 94.267C96.2144 95.1874 97.1831 95.8973 98.2837 96.3256L93.864 110.636C93.0598 110.471 92.2281 110.499 91.4365 110.716C90.6449 110.933 89.9159 111.335 89.3089 111.888C88.702 112.44 88.2343 113.129 87.9441 113.897C87.6538 114.665 87.5491 115.49 87.6386 116.306C87.6775 116.667 87.7557 117.023 87.8718 117.368L77.2515 122.026C76.8383 121.417 76.2161 120.981 75.5029 120.8C74.7897 120.619 74.0349 120.706 73.3815 121.044C72.7282 121.383 72.2217 121.949 71.9579 122.636C71.6941 123.323 71.6915 124.083 71.9504 124.771C72.2093 125.46 72.7118 126.03 73.3628 126.373C74.0137 126.716 74.7679 126.808 75.4824 126.633C76.1968 126.457 76.822 126.025 77.2395 125.419C77.657 124.813 77.8377 124.075 77.7475 123.345C77.7311 123.206 77.7046 123.068 77.6681 122.933L88.2984 118.246C88.7991 119.137 89.5509 119.862 90.4602 120.329C91.3695 120.797 92.3962 120.986 93.4126 120.875C94.679 120.737 95.8493 120.135 96.6964 119.183L109.44 128.638C109.167 129.162 109.056 129.757 109.122 130.344C109.196 131.024 109.498 131.659 109.979 132.145C110.459 132.631 111.09 132.94 111.769 133.022C112.448 133.103 113.134 132.953 113.716 132.594C114.299 132.236 114.742 131.691 114.975 131.048C115.208 130.406 115.217 129.703 114.999 129.055C114.782 128.407 114.351 127.851 113.778 127.479C113.204 127.107 112.521 126.94 111.841 127.005C111.16 127.071 110.522 127.365 110.03 127.839L97.2916 118.39C97.6814 117.747 97.9269 117.027 98.0111 116.279C98.0954 115.532 98.0164 114.776 97.7796 114.062C97.5428 113.348 97.1539 112.695 96.6397 112.146C96.1255 111.597 95.4983 111.167 94.8015 110.884L99.2213 96.5686C99.9607 96.7398 100.723 96.7868 101.478 96.7075C102.517 96.5926 103.514 96.2382 104.393 95.6723C105.271 95.1063 106.006 94.3443 106.54 93.446C107.073 92.5478 107.391 91.538 107.468 90.4961C107.546 89.4541 107.38 88.4084 106.984 87.4414L124.505 78.7408C125.046 79.5771 125.816 80.2403 126.723 80.6515C127.63 81.0628 128.636 81.2047 129.622 81.0605C130.608 80.9163 131.531 80.4919 132.282 79.838C133.034 79.184 133.581 78.328 133.86 77.3717L155.274 81.0176C155.274 81.1218 155.274 81.2309 155.274 81.3351C155.339 81.9294 155.578 82.4913 155.962 82.9495C156.346 83.4076 156.858 83.7416 157.432 83.909C158.005 84.0764 158.616 84.0698 159.186 83.8899C159.756 83.7101 160.26 83.3651 160.634 82.8987C161.008 82.4323 161.236 81.8654 161.287 81.2697C161.339 80.6741 161.212 80.0766 160.924 79.5528C160.636 79.029 160.199 78.6025 159.668 78.3272C159.138 78.052 158.537 77.9404 157.943 78.0066L157.958 78.0265ZM120.869 46.5426C121.266 46.499 121.668 46.5742 122.023 46.7588C122.378 46.9434 122.67 47.229 122.863 47.5797C123.056 47.9303 123.14 48.3301 123.106 48.7287C123.071 49.1273 122.919 49.5067 122.669 49.8191C122.419 50.1314 122.082 50.3627 121.701 50.4836C121.319 50.6045 120.911 50.6097 120.527 50.4984C120.142 50.3872 119.8 50.1646 119.542 49.8587C119.284 49.5528 119.122 49.1773 119.078 48.7797C119.021 48.246 119.177 47.7113 119.512 47.2922C119.848 46.8731 120.335 46.6037 120.869 46.5426ZM81.6266 23.7989C81.6702 24.1966 81.5949 24.5983 81.4103 24.9533C81.2257 25.3082 80.9401 25.6005 80.5895 25.7932C80.2388 25.9858 79.839 26.0703 79.4404 26.0358C79.0418 26.0014 78.6624 25.8495 78.35 25.5995C78.0377 25.3495 77.8065 25.0125 77.6855 24.6312C77.5646 24.2498 77.5595 23.8411 77.6707 23.4568C77.7819 23.0725 78.0045 22.7298 78.3104 22.472C78.6163 22.2141 78.9918 22.0528 79.3894 22.0082C79.9234 21.9497 80.4588 22.1054 80.8782 22.4411C81.2976 22.7768 81.5667 23.2651 81.6266 23.7989ZM41.943 59.0181C42.0361 59.8471 41.8812 60.6851 41.4979 61.4261C41.1145 62.167 40.52 62.7776 39.7895 63.1806C39.059 63.5835 38.2254 63.7607 37.3942 63.6897C36.563 63.6187 35.7715 63.3027 35.1199 62.7817C34.4683 62.2608 33.9859 61.5582 33.7338 60.763C33.4817 59.9677 33.4711 59.1156 33.7034 58.3143C33.9358 57.5131 34.4006 56.7988 35.0391 56.2618C35.6775 55.7248 36.4609 55.3893 37.2901 55.2977C38.3984 55.1822 39.5073 55.5095 40.3752 56.2083C41.2431 56.907 41.7996 57.9206 41.9232 59.028L41.943 59.0181ZM64.7611 51.6915C64.5725 49.9872 64.8934 48.2654 65.6833 46.7435C66.4732 45.2216 67.6965 43.9681 69.1987 43.1414C70.7009 42.3147 72.4145 41.9519 74.1228 42.099C75.8312 42.246 77.4575 42.8962 78.7964 43.9674C80.1352 45.0386 81.1264 46.4827 81.6446 48.1172C82.1629 49.7516 82.1849 51.5031 81.7079 53.15C81.2309 54.797 80.2763 56.2655 78.9648 57.3701C77.6533 58.4746 76.0438 59.1655 74.3397 59.3554C73.2065 59.4837 72.0591 59.3876 70.9631 59.0724C69.8671 58.7571 68.8439 58.229 67.9521 57.5182C67.0602 56.8074 66.3172 55.9279 65.7654 54.9298C65.2136 53.9317 64.8639 52.8347 64.7363 51.7014L64.7611 51.6915ZM76.7455 123.449C76.7891 123.847 76.7138 124.249 76.5292 124.604C76.3447 124.959 76.059 125.251 75.7084 125.443C75.3578 125.636 74.9579 125.721 74.5593 125.686C74.1607 125.652 73.7813 125.5 73.469 125.25C73.1566 125 72.9254 124.663 72.8045 124.281C72.6836 123.9 72.6784 123.491 72.7896 123.107C72.9008 122.723 73.1235 122.38 73.4294 122.122C73.7353 121.864 74.1107 121.703 74.5083 121.659C75.0399 121.607 75.5702 121.767 75.9844 122.104C76.3985 122.441 76.6631 122.928 76.7207 123.459L76.7455 123.449ZM93.2886 119.883C92.4596 119.975 91.6219 119.819 90.8815 119.435C90.1412 119.051 89.5313 118.456 89.1291 117.725C88.7269 116.995 88.5505 116.161 88.6221 115.33C88.6937 114.499 89.0102 113.708 89.5315 113.057C90.0528 112.406 90.7555 111.924 91.5507 111.672C92.3458 111.421 93.1978 111.41 93.9988 111.643C94.7998 111.876 95.5137 112.341 96.0504 112.979C96.5871 113.617 96.9224 114.401 97.0139 115.23C97.0758 115.783 97.0277 116.342 96.8725 116.876C96.7173 117.41 96.4579 117.908 96.1093 118.342C95.7607 118.775 95.3298 119.135 94.8415 119.401C94.3531 119.668 93.8169 119.835 93.2638 119.893L93.2886 119.883ZM111.885 127.988C112.283 127.944 112.685 128.02 113.04 128.204C113.395 128.389 113.687 128.675 113.88 129.025C114.072 129.376 114.157 129.776 114.122 130.174C114.088 130.573 113.936 130.952 113.686 131.265C113.436 131.577 113.099 131.808 112.717 131.929C112.336 132.05 111.927 132.055 111.543 131.944C111.159 131.833 110.816 131.61 110.558 131.304C110.3 130.998 110.139 130.623 110.095 130.225C110.038 129.697 110.192 129.167 110.522 128.751C110.853 128.334 111.333 128.064 111.86 127.998L111.885 127.988ZM106.488 89.3661C106.614 90.4991 106.4 91.6439 105.875 92.6558C105.35 93.6676 104.537 94.501 103.538 95.0506C102.539 95.6002 101.4 95.8412 100.264 95.7433C99.1285 95.6454 98.0472 95.2129 97.1573 94.5005C96.2673 93.7881 95.6085 92.8278 95.2643 91.7411C94.9201 90.6543 94.9059 89.4898 95.2234 88.395C95.541 87.3001 96.1761 86.324 97.0484 85.59C97.9207 84.8561 98.991 84.3973 100.124 84.2717C101.641 84.113 103.158 84.5607 104.346 85.5169C105.534 86.4732 106.295 87.8605 106.464 89.376L106.488 89.3661ZM124.703 76.3846C124.616 75.5563 124.775 74.7207 125.163 73.9834C125.55 73.2461 126.147 72.6402 126.879 72.2423C127.611 71.8443 128.444 71.6723 129.273 71.7478C130.103 71.8234 130.891 72.1431 131.539 72.6667C132.186 73.1902 132.664 73.8941 132.912 74.6893C133.16 75.4844 133.166 76.3351 132.93 77.1339C132.695 77.9327 132.227 78.6437 131.588 79.1769C130.948 79.7101 130.164 80.0417 129.336 80.1297C128.785 80.1904 128.227 80.1418 127.695 79.9869C127.163 79.832 126.666 79.5738 126.233 79.2269C125.801 78.8801 125.441 78.4514 125.174 77.9654C124.907 77.4794 124.739 76.9456 124.678 76.3945L124.703 76.3846ZM156.301 81.2359C156.257 80.8382 156.333 80.4365 156.517 80.0816C156.702 79.7266 156.988 79.4343 157.338 79.2416C157.689 79.049 158.089 78.9645 158.487 78.999C158.886 79.0335 159.265 79.1853 159.578 79.4353C159.89 79.6853 160.121 80.0223 160.242 80.4037C160.363 80.785 160.368 81.1937 160.257 81.578C160.146 81.9623 159.923 82.305 159.617 82.5628C159.311 82.8207 158.936 82.9821 158.538 83.0266C158.273 83.0591 158.003 83.0388 157.746 82.9668C157.488 82.8947 157.247 82.7724 157.037 82.6069C156.826 82.4414 156.651 82.2359 156.521 82.0023C156.39 81.7687 156.307 81.5116 156.276 81.2458L156.301 81.2359Z" fill="#FAFAFA"/>
</g>
</g>
<g id="character-2">
<path id="Vector_3" d="M163.921 134.199H131.743C131.281 134.207 130.823 134.117 130.399 133.934C129.975 133.752 129.594 133.481 129.283 133.139C128.972 132.798 128.737 132.394 128.594 131.955C128.451 131.516 128.403 131.051 128.454 130.592L136.778 35.5354C136.877 34.5591 137.331 33.6531 138.053 32.9886C138.775 32.3241 139.716 31.9472 140.697 31.9292H172.88C173.342 31.9215 173.8 32.0122 174.223 32.1951C174.647 32.378 175.027 32.649 175.338 32.9901C175.649 33.3311 175.884 33.7345 176.027 34.1734C176.171 34.6122 176.219 35.0765 176.169 35.5354L167.845 130.568C167.75 131.549 167.298 132.461 166.575 133.13C165.851 133.8 164.907 134.18 163.921 134.199Z" fill="#C85C8E"/>
<path id="Vector_4" opacity="0.6" d="M163.921 134.199H131.743C131.281 134.207 130.823 134.117 130.399 133.934C129.975 133.752 129.594 133.481 129.283 133.139C128.972 132.798 128.737 132.394 128.594 131.955C128.451 131.516 128.403 131.051 128.454 130.592L136.778 35.5354C136.877 34.5591 137.331 33.6531 138.053 32.9886C138.775 32.3241 139.716 31.9472 140.697 31.9292H172.88C173.342 31.9215 173.8 32.0122 174.223 32.1951C174.647 32.378 175.027 32.649 175.338 32.9901C175.649 33.3311 175.884 33.7345 176.027 34.1734C176.171 34.6122 176.219 35.0765 176.169 35.5354L167.845 130.568C167.75 131.549 167.298 132.461 166.575 133.13C165.851 133.8 164.907 134.18 163.921 134.199Z" fill="#FAFAFA"/>
<path id="Vector_5" d="M160.454 134.199H128.276C127.814 134.206 127.356 134.116 126.932 133.933C126.509 133.75 126.129 133.479 125.817 133.138C125.506 132.797 125.271 132.393 125.128 131.954C124.985 131.516 124.937 131.051 124.987 130.592L133.306 35.5354C133.405 34.5591 133.858 33.6531 134.581 32.9886C135.303 32.3241 136.243 31.9472 137.224 31.9292H169.408C169.869 31.9215 170.327 32.0122 170.751 32.1951C171.175 32.378 171.555 32.649 171.866 32.9901C172.177 33.3311 172.412 33.7345 172.555 34.1734C172.698 34.6122 172.746 35.0765 172.696 35.5354L164.378 130.568C164.283 131.549 163.831 132.461 163.107 133.13C162.384 133.8 161.44 134.18 160.454 134.199Z" fill="#C85C8E"/>
<path id="Vector_6" opacity="0.8" d="M160.454 134.199H128.276C127.814 134.206 127.356 134.116 126.932 133.933C126.509 133.75 126.129 133.479 125.817 133.138C125.506 132.797 125.271 132.393 125.128 131.954C124.985 131.516 124.937 131.051 124.987 130.592L133.306 35.5354C133.405 34.5591 133.858 33.6531 134.581 32.9886C135.303 32.3241 136.243 31.9472 137.224 31.9292H169.408C169.869 31.9215 170.327 32.0122 170.751 32.1951C171.175 32.378 171.555 32.649 171.866 32.9901C172.177 33.3311 172.412 33.7345 172.555 34.1734C172.698 34.6122 172.746 35.0765 172.696 35.5354L164.378 130.568C164.283 131.549 163.831 132.461 163.107 133.13C162.384 133.8 161.44 134.18 160.454 134.199Z" fill="#FAFAFA"/>
<path id="Vector_7" d="M171.377 35.357L163.068 130.563C162.999 131.347 162.513 131.957 161.967 131.957H127.07C126.574 131.957 126.242 131.396 126.306 130.677L134.655 35.2429C134.709 34.6179 135.076 34.0723 135.508 34.0723H144.218C144.462 34.0723 144.665 34.3054 144.715 34.6378L144.963 35.9225C145.027 36.2549 145.23 36.483 145.459 36.483H160.305C160.45 36.4632 160.586 36.4001 160.695 36.3019C160.804 36.2037 160.881 36.0749 160.915 35.9324L161.411 34.6427C161.446 34.4984 161.522 34.3674 161.631 34.266C161.739 34.1646 161.875 34.0973 162.022 34.0723H170.613C171.109 34.0723 171.436 34.6675 171.377 35.357Z" fill="#0A0A0A"/>
<path id="Vector_8" d="M170.97 40.0244L169.954 51.6517L169.904 52.1973L169.09 61.5131L169.061 61.8553L168.932 63.3137L168.644 66.6124L168.421 69.1372L168.391 69.4795L168.202 71.6671L167.905 75.0749L167.315 81.831L167.265 82.3767L163.822 121.713H127.09L134.238 40.0244H170.97Z" fill="#C85C8E"/>
<path id="Vector_9" opacity="0.6" d="M138.469 37.9116H138.921L139 37.0386H138.544L138.469 37.9116Z" fill="#FAFAFA"/>
<path id="Vector_10" opacity="0.6" d="M137.73 37.9113H138.182L138.286 36.7456H137.835L137.73 37.9113Z" fill="#FAFAFA"/>
<path id="Vector_11" opacity="0.6" d="M136.991 37.9115H137.443L137.572 36.4531H137.12L136.991 37.9115Z" fill="#FAFAFA"/>
<path id="Vector_12" opacity="0.6" d="M136.252 37.9116H136.703L136.857 36.1655H136.406L136.252 37.9116Z" fill="#FAFAFA"/>
<path id="Vector_13" opacity="0.6" d="M167.027 37.5893H166.759L166.833 36.7212H167.101L167.027 37.5893Z" fill="#FAFAFA"/>
<path id="Vector_14" opacity="0.6" d="M167.18 37.9114H169.323L169.457 36.3984H167.314L167.18 37.9114Z" fill="#FAFAFA"/>
<path id="Vector_15" opacity="0.6" d="M153.108 34.1959C153.073 34.5977 152.82 34.9251 152.537 34.9251C152.255 34.9251 152.041 34.5977 152.101 34.1959C152.16 33.7941 152.389 33.4717 152.666 33.4717C152.944 33.4717 153.147 33.7941 153.108 34.1959Z" fill="#0A0A0A"/>
<path id="Vector_16" opacity="0.6" d="M154.139 34.1963C154.114 34.4542 153.951 34.6625 153.772 34.6625C153.594 34.6625 153.47 34.4542 153.489 34.1963C153.509 33.9383 153.678 33.73 153.856 33.73C154.035 33.73 154.139 33.9433 154.139 34.1963Z" fill="#0A0A0A"/>
<g id="Group_2" opacity="0.2">
<path id="Vector_17" d="M169.954 51.6519L169.904 52.1975L169.091 61.5132L169.061 61.8555L168.932 63.3139L168.644 66.6126L168.421 69.1374L168.391 69.4797L168.203 71.6672L167.905 75.0751L167.315 81.8312L167.265 82.3768H143.366V51.6519H169.954Z" fill="black"/>
</g>
<g id="Group_3" opacity="0.2">
<path id="Vector_18" d="M169.904 52.1978L169.09 61.5135L169.061 61.8557L168.932 63.3141L168.644 66.6128L168.421 69.1377L168.391 69.4799L168.202 71.6675L167.905 75.0753L167.314 81.8314H143.911V52.1978H169.904Z" fill="#FAFAFA"/>
</g>
<path id="Vector_19" opacity="0.2" d="M166.193 69.4795V71.667H168.202L167.905 75.0749H163.133V71.667H165.851V69.1372H168.421L168.391 69.4795H166.193Z" fill="black"/>
<path id="Vector_20" opacity="0.2" d="M166.461 63.314H168.931L168.644 66.6127H166.461V63.314Z" fill="black"/>
<path id="Vector_21" opacity="0.2" d="M169.09 61.5131L169.06 61.8554H163.743L162.488 63.1104L161.238 61.8554H153.266V64.0132H158.589V68.423H153.266V73.3735H156.143V76.5928H150.042V73.3735H152.924V68.423H149.035V64.0132H152.924V61.5131H161.451L162.319 60.645V59.0676H158.078V56.0269H166.898V59.0676H162.661V60.645L163.53 61.5131H169.09Z" fill="black"/>
<path id="Vector_22" d="M137.432 61.9744C137.432 61.9744 134.903 63.3881 136.301 66.6422C136.301 66.6422 134.436 67.9964 135.25 70.7941C136.063 73.5918 137.73 73.6711 137.73 73.6711C137.069 75.0243 136.935 76.5748 137.353 78.0215C137.517 78.6301 137.844 79.1825 138.299 79.6194C138.753 80.0564 139.318 80.3614 139.933 80.5017C139.933 80.5017 138.162 83.8649 141.103 86.1467C147.294 90.9434 155.389 87.8332 157.894 85.6506C161.719 82.2924 159.878 78.9143 159.878 78.9143C159.878 78.9143 161.674 76.4688 158.177 72.4658C158.177 72.4658 160.275 69.4448 157.185 65.8584C157.185 65.8584 158.703 60.9228 153.187 59.6827C153.187 59.6827 152.438 57.3215 150.087 56.6717C147.021 55.8235 145.865 57.3215 145.865 57.3215C141.718 55.9227 140.791 58.6658 140.791 58.6658C140.791 58.6658 137.274 58.6311 137.432 61.9744Z" fill="#0A0A0A"/>
<path id="Vector_23" d="M141.177 86.5191C141.177 87.2334 141.177 87.8535 141.118 88.5033C141.058 89.1531 141.034 89.793 140.974 90.4379C140.86 91.7276 140.666 93.0024 140.478 94.2822C140.056 96.8541 139.392 99.3804 138.494 101.827L138.32 102.288C138.256 102.457 138.231 102.551 138.092 102.869C137.823 103.446 137.416 103.949 136.906 104.332C136.427 104.683 135.874 104.922 135.289 105.031C134.835 105.127 134.369 105.162 133.905 105.136C133.142 105.094 132.387 104.958 131.658 104.729C131 104.528 130.354 104.29 129.724 104.015C127.361 102.934 125.13 101.587 123.072 100.002L124.233 98.1762C125.309 98.6722 126.435 99.2079 127.546 99.6643C128.634 100.138 129.749 100.547 130.884 100.89C131.871 101.227 132.903 101.407 133.945 101.425C134.357 101.425 134.59 101.267 134.52 101.271C134.451 101.276 134.461 101.311 134.466 101.271C134.471 101.232 134.516 101.103 134.555 100.974L134.684 100.552C135.346 98.2761 135.844 95.9552 136.172 93.6076C136.346 92.4221 136.47 91.2315 136.579 90.041C136.634 89.4458 136.683 88.8505 136.718 88.2553C136.753 87.66 136.782 87.0449 136.797 86.5142L141.177 86.5191Z" fill="#E9B376"/>
<path id="Vector_24" d="M137.834 81.5289C136.113 82.0993 135.414 89.411 135.414 89.411L140.483 92.3476C140.483 92.3476 144.59 84.7284 143.102 82.9228C141.55 80.9882 140.349 80.6906 137.834 81.5289Z" fill="#C85C8E"/>
<g id="Group_4" opacity="0.7">
<path id="Vector_25" d="M137.834 81.5289C136.113 82.0993 135.414 89.411 135.414 89.411L140.483 92.3476C140.483 92.3476 144.59 84.7284 143.102 82.9228C141.55 80.9882 140.349 80.6906 137.834 81.5289Z" fill="#FAFAFA"/>
</g>
<path id="Vector_26" opacity="0.2" d="M138.112 83.126L137.294 90.5022L140.146 92.149L138.112 83.126Z" fill="black"/>
<path id="Vector_27" d="M124.168 100.339L118.96 100.056L121.792 96.7671C121.792 96.7671 124.471 97.3276 124.972 99.0291L124.168 100.339Z" fill="#EBB376"/>
<path id="Vector_28" d="M116.261 98.3892L118.444 95.9834L121.792 96.7672L118.96 100.056L116.261 98.3892Z" fill="#EBB376"/>
<path id="Vector_29" d="M159.025 105.81L141.738 107.065C135.86 82.3866 137.839 81.5235 137.839 81.5235C137.839 81.5235 138.474 81.3449 139.446 81.0969C140.855 80.7397 142.978 80.2387 144.952 79.9113C147.553 79.5322 150.177 79.3416 152.805 79.3409C154.52 79.3086 156.235 79.3698 157.944 79.5244C159.313 79.6435 160.216 79.7724 160.216 79.7724C157.899 94.4554 158.226 98.7957 159.025 105.81Z" fill="#C85C8E"/>
<g id="Group_5" opacity="0.7">
<path id="Vector_30" d="M158.603 92.6299C158.275 97.0256 158.414 101.444 159.02 105.81L141.738 107.065C135.86 82.3866 137.839 81.5235 137.839 81.5235C137.839 81.5235 138.474 81.3449 139.446 81.0969C140.855 80.7397 142.978 80.2387 144.952 79.9113C147.553 79.5322 150.177 79.3416 152.805 79.3409C154.52 79.3086 156.235 79.3698 157.944 79.5244C159.313 79.6435 160.216 79.7724 160.216 79.7724C159.72 83.0017 159.323 85.725 159.045 88.0961C158.852 89.7727 158.708 91.2708 158.603 92.6299Z" fill="#FAFAFA"/>
</g>
<path id="Vector_31" d="M162.424 121.713C161.868 115.235 161.134 109.491 159.026 105.81L146.302 106.738L141.739 107.07C141.739 107.07 141.55 113.459 141.441 121.713H162.424Z" fill="#0A0A0A"/>
<path id="Vector_32" opacity="0.2" d="M162.424 121.713C161.868 115.235 161.134 109.491 159.026 105.81L146.302 106.738L141.739 107.07C141.739 107.07 141.55 113.459 141.441 121.713H162.424Z" fill="#FAFAFA"/>
<path id="Vector_33" d="M150.389 71.0571C150.076 73.6167 149.918 78.2845 151.808 79.8371C151.808 79.8371 151.311 82.4513 146.609 82.8134C141.45 83.1854 143.96 80.4324 143.96 80.4324C146.728 79.5544 146.5 77.4561 145.87 75.5414L150.389 71.0571Z" fill="#EBB376"/>
<path id="Vector_34" opacity="0.2" d="M148.544 72.8774L145.871 75.5214C146.027 75.9678 146.142 76.4278 146.213 76.8954C147.279 76.6623 148.693 75.3725 148.693 74.2366C148.727 73.7783 148.677 73.3175 148.544 72.8774Z" fill="black"/>
<path id="Vector_35" d="M150.275 64.8815C150.771 69.088 151.064 70.8589 149.343 73.3738C146.758 77.1537 141.485 76.8461 139.744 72.8778C138.182 69.3013 137.641 63.0214 141.416 60.6354C142.245 60.1052 143.195 59.7954 144.177 59.7354C145.159 59.6753 146.14 59.867 147.028 60.2922C147.915 60.7175 148.679 61.3622 149.247 62.1653C149.816 62.9684 150.169 63.9034 150.275 64.8815Z" fill="#EBB376"/>
<path id="Vector_36" d="M138.802 62.3517C138.157 64.6384 153.296 66.8161 150.533 62.9767C147.77 59.1373 140.498 56.3793 138.802 62.3517Z" fill="#0A0A0A"/>
<path id="Vector_37" d="M146.848 64.3756C147.22 66.3598 150.518 67.709 150.518 67.709C150.518 67.709 152.865 64.197 150.399 63.6663C147.934 63.1355 146.848 64.3756 146.848 64.3756Z" fill="#0A0A0A"/>
<path id="Vector_38" d="M143.579 67.2721C143.638 67.6094 143.509 67.9169 143.286 67.9566C143.063 67.9963 142.834 67.7532 142.79 67.4159C142.745 67.0786 142.859 66.7711 143.082 66.7314C143.306 66.6917 143.519 66.9298 143.579 67.2721Z" fill="#0A0A0A"/>
<path id="Vector_39" d="M139.754 67.9566C139.813 68.2988 139.684 68.6014 139.461 68.6411C139.238 68.6808 139.01 68.4427 138.965 68.1004C138.92 67.7581 139.035 67.4555 139.258 67.4159C139.481 67.3762 139.689 67.6192 139.754 67.9566Z" fill="#0A0A0A"/>
<path id="Vector_40" d="M139.337 67.4164L138.484 67.332C138.484 67.332 139.015 67.8926 139.337 67.4164Z" fill="#0A0A0A"/>
<path id="Vector_41" d="M141.296 68.2646C141.134 69.0906 140.859 69.8901 140.478 70.6407C140.673 70.7306 140.886 70.7772 141.101 70.7772C141.315 70.7772 141.528 70.7306 141.723 70.6407L141.296 68.2646Z" fill="#D58745"/>
<path id="Vector_42" d="M152.086 68.4974C152.013 68.8963 151.861 69.2769 151.641 69.6174C151.42 69.9579 151.135 70.2515 150.801 70.4816C149.903 71.0917 149.11 70.3724 149.07 69.3456C149.035 68.418 149.462 66.9894 150.498 66.7861C150.727 66.747 150.961 66.7655 151.181 66.8399C151.4 66.9143 151.598 67.0422 151.755 67.2121C151.913 67.382 152.026 67.5885 152.083 67.8129C152.141 68.0373 152.142 68.2726 152.086 68.4974Z" fill="#EBB376"/>
<path id="Vector_43" d="M144.977 66.2405C144.937 66.2544 144.893 66.2552 144.852 66.2427C144.811 66.2303 144.775 66.2052 144.749 66.171C144.184 65.422 142.983 65.4518 142.968 65.4518C142.915 65.4531 142.864 65.4336 142.825 65.3975C142.786 65.3613 142.763 65.3114 142.76 65.2583C142.759 65.2314 142.763 65.2046 142.772 65.1793C142.782 65.1541 142.796 65.131 142.814 65.1116C142.833 65.0921 142.855 65.0766 142.88 65.066C142.905 65.0554 142.932 65.0499 142.958 65.05C143.013 65.05 144.382 65.0152 145.072 65.928C145.103 65.9709 145.117 66.0246 145.11 66.0775C145.102 66.1304 145.074 66.1782 145.032 66.2107L144.977 66.2405Z" fill="#0A0A0A"/>
<path id="Vector_44" d="M138.266 66.3944C138.233 66.4059 138.197 66.4087 138.162 66.4027C138.127 66.3966 138.095 66.3818 138.067 66.3597C138.049 66.3408 138.034 66.3184 138.023 66.2937C138.013 66.2691 138.008 66.2426 138.008 66.2159C138.008 66.1892 138.013 66.1627 138.023 66.138C138.034 66.1133 138.049 66.0909 138.067 66.072C138.268 65.8217 138.526 65.6237 138.82 65.495C139.114 65.3663 139.434 65.3106 139.754 65.3329C139.782 65.3336 139.81 65.3403 139.836 65.3525C139.861 65.3646 139.884 65.382 139.903 65.4035C139.921 65.425 139.935 65.4501 139.943 65.4773C139.952 65.5044 139.954 65.533 139.951 65.5611C139.947 65.5893 139.938 65.6164 139.923 65.6407C139.909 65.6651 139.889 65.6861 139.866 65.7024C139.843 65.7188 139.816 65.7301 139.789 65.7357C139.761 65.7412 139.732 65.7409 139.704 65.7347C139.451 65.7216 139.198 65.7692 138.967 65.8736C138.736 65.9781 138.533 66.1362 138.375 66.3349C138.347 66.3672 138.308 66.3883 138.266 66.3944Z" fill="#0A0A0A"/>
<path id="Vector_45" d="M143.167 66.7367L142.314 66.6475C142.314 66.6475 142.845 67.203 143.167 66.7367Z" fill="#0A0A0A"/>
<path id="Vector_46" d="M142.73 71.7913C143.184 72.1832 143.608 72.6076 144 73.0611C144.09 73.0066 144.184 72.952 144.268 72.8925C145.484 72.1286 145.796 71.3746 145.756 70.7694C145.738 70.4735 145.649 70.1863 145.498 69.9311C145.416 69.784 145.314 69.6489 145.196 69.5293C144.794 70.318 143.708 71.1216 143.127 71.5135C142.904 71.697 142.73 71.7913 142.73 71.7913Z" fill="#0A0A0A"/>
<path id="Vector_47" d="M143.152 71.5234L143.534 71.8905C144.675 71.1662 145.384 70.5015 145.518 69.9311C145.436 69.784 145.334 69.6489 145.215 69.5293C144.819 70.318 143.722 71.1216 143.152 71.5234Z" fill="#FAFAFA"/>
<path id="Vector_48" d="M144.278 72.8926C145.494 72.1287 145.806 71.3747 145.766 70.7695C145.31 71.069 144.91 71.4468 144.586 71.8856C144.384 72.1825 144.277 72.5336 144.278 72.8926Z" fill="#DBFFB8"/>
<path id="Vector_49" d="M159.209 104.778L159.765 106.296C159.834 106.41 159.7 106.544 159.502 106.559L141.709 107.849C141.555 107.849 141.421 107.794 141.401 107.695L141.133 106.162C141.133 106.053 141.242 105.954 141.416 105.944L158.921 104.669C158.975 104.66 159.029 104.666 159.08 104.685C159.13 104.704 159.175 104.736 159.209 104.778Z" fill="#FAFAFA"/>
<path id="Vector_50" d="M157.001 106.916L157.468 106.881C157.562 106.881 157.631 106.822 157.621 106.762L157.254 104.778C157.254 104.724 157.16 104.679 157.066 104.684L156.595 104.719C156.5 104.719 156.436 104.778 156.446 104.838L156.813 106.822C156.823 106.872 156.907 106.916 157.001 106.916Z" fill="#0A0A0A"/>
<path id="Vector_51" d="M143.038 107.908L143.509 107.874C143.603 107.874 143.668 107.814 143.658 107.755L143.291 105.77C143.291 105.711 143.197 105.671 143.102 105.676L142.636 105.711C142.542 105.711 142.472 105.77 142.482 105.83L142.849 107.814C142.859 107.908 142.944 107.908 143.038 107.908Z" fill="#0A0A0A"/>
<path id="Vector_52" d="M150.022 107.412L150.488 107.383C150.582 107.383 150.652 107.318 150.637 107.264L150.275 105.279C150.258 105.244 150.23 105.216 150.195 105.199C150.159 105.182 150.12 105.177 150.081 105.185L149.615 105.22C149.521 105.22 149.451 105.279 149.466 105.339L149.828 107.323C149.847 107.357 149.876 107.384 149.91 107.4C149.945 107.416 149.984 107.42 150.022 107.412Z" fill="#0A0A0A"/>
<g id="Group_6" opacity="0.2">
<path id="Vector_53" d="M157.001 106.916L157.468 106.881C157.562 106.881 157.631 106.822 157.621 106.762L157.254 104.778C157.254 104.724 157.16 104.679 157.066 104.684L156.595 104.719C156.5 104.719 156.436 104.778 156.446 104.838L156.813 106.822C156.823 106.872 156.907 106.916 157.001 106.916Z" fill="#FAFAFA"/>
<path id="Vector_54" d="M143.038 107.908L143.509 107.874C143.603 107.874 143.668 107.814 143.658 107.755L143.291 105.77C143.291 105.711 143.197 105.671 143.102 105.676L142.636 105.711C142.542 105.711 142.472 105.77 142.482 105.83L142.849 107.814C142.859 107.908 142.944 107.908 143.038 107.908Z" fill="#FAFAFA"/>
<path id="Vector_55" d="M150.022 107.412L150.488 107.383C150.582 107.383 150.652 107.318 150.637 107.264L150.275 105.279C150.258 105.244 150.23 105.216 150.195 105.199C150.159 105.182 150.12 105.177 150.081 105.185L149.615 105.22C149.521 105.22 149.451 105.279 149.466 105.339L149.828 107.323C149.847 107.357 149.876 107.384 149.91 107.4C149.945 107.416 149.984 107.42 150.022 107.412Z" fill="#FAFAFA"/>
</g>
<path id="Vector_56" d="M155.027 100.542L150.632 101.931L152.299 97.9228C152.299 97.9228 155.022 97.6252 156.024 99.0885L155.027 100.542Z" fill="#EBB376"/>
<path id="Vector_57" d="M147.27 100.676L148.847 97.397L152.299 97.9228L150.633 101.931L147.27 100.676Z" fill="#EBB376"/>
<path id="Vector_58" d="M157.944 79.5244C156.772 81.0076 155.376 82.2995 153.807 83.3538C153.653 83.458 153.495 83.5572 153.311 83.6564C151.276 84.9417 148.901 85.5831 146.495 85.4967C144.045 85.3876 142.443 84.8221 141.391 84.1078C141.24 84.0046 141.094 83.8937 140.955 83.7755C140.127 83.1062 139.581 82.1499 139.427 81.0968C140.156 80.9133 141.079 80.6851 142.076 80.4668L142.691 80.3379C143.43 80.1841 144.179 80.0353 144.933 79.9113C147.533 79.5322 150.157 79.3415 152.785 79.3408C152.999 79.3408 153.212 79.3408 153.42 79.3408H153.916C155.429 79.3408 156.838 79.4301 157.944 79.5244Z" fill="#EBB376"/>
<path id="Vector_59" d="M153.807 83.3539C153.653 83.4581 153.495 83.5573 153.311 83.6565C153.205 82.2162 153.242 80.769 153.42 79.3359H153.916C153.759 80.6693 153.723 82.014 153.807 83.3539Z" fill="#0A0A0A"/>
<path id="Vector_60" d="M142.73 80.3384C142.156 81.5421 141.72 82.8067 141.431 84.1083C141.28 84.0052 141.134 83.8942 140.994 83.776C141.259 82.6392 141.635 81.5311 142.115 80.4673L142.73 80.3384Z" fill="#0A0A0A"/>
<path id="Vector_61" opacity="0.2" d="M159.045 88.0962C158.852 89.7729 158.708 91.2709 158.609 92.6301C157.12 90.8295 156.446 87.6349 156.446 87.6349C156.887 87.5189 157.347 87.5 157.796 87.5796C158.245 87.6593 158.671 87.8356 159.045 88.0962Z" fill="black"/>
<path id="Vector_62" d="M162.413 84.1924C163.405 86.1766 164.298 88.1211 165.127 90.1449C165.538 91.1668 165.94 92.1936 166.292 93.27C166.466 93.8107 166.64 94.3514 166.788 94.9317C166.96 95.5674 167.08 96.2161 167.146 96.8713V97.1987V97.3673V97.5757C167.137 97.7424 167.115 97.9082 167.081 98.0717C167.032 98.2883 166.957 98.4982 166.858 98.6967C166.567 99.2646 166.117 99.7353 165.563 100.051C164.92 100.407 164.223 100.656 163.5 100.79C162.355 101.011 161.193 101.13 160.027 101.147C157.815 101.18 155.604 101.037 153.415 100.721L153.494 98.5628C155.588 98.3693 157.711 98.156 159.735 97.8386C160.702 97.6963 161.658 97.4874 162.597 97.2135C162.924 97.1219 163.236 96.9797 163.519 96.7919C163.579 96.7522 163.519 96.7274 163.336 97.0102C163.286 97.1238 163.246 97.2417 163.217 97.3623V97.3326V97.2582C163.134 96.8525 163.023 96.453 162.885 96.0627C162.741 95.6113 162.562 95.1401 162.388 94.6688C162.011 93.7263 161.605 92.769 161.188 91.8116C160.33 89.9118 159.422 87.9822 158.539 86.0922L162.413 84.1924Z" fill="#E9B376"/>
<path id="Vector_63" d="M160.211 79.7778C161.981 80.1796 164.496 85.9883 164.496 85.9883L158.107 91.2811C158.107 91.2811 155.295 86.4844 155.86 84.1926C156.465 81.8017 158.192 79.3215 160.211 79.7778Z" fill="#C85C8E"/>
<g id="Group_7" opacity="0.7">
<path id="Vector_64" d="M160.211 79.7778C161.981 80.1796 164.496 85.9883 164.496 85.9883L158.107 91.2811C158.107 91.2811 155.295 86.4844 155.86 84.1926C156.465 81.8017 158.192 79.3215 160.211 79.7778Z" fill="#FAFAFA"/>
</g>
<g id="Group_8" opacity="0.2">
<path id="Vector_65" d="M153.807 83.3539C153.653 83.4581 153.495 83.5573 153.311 83.6565C153.205 82.2162 153.242 80.769 153.42 79.3359H153.916C153.759 80.6693 153.723 82.014 153.807 83.3539Z" fill="#FAFAFA"/>
</g>
<g id="Group_9" opacity="0.2">
<path id="Vector_66" d="M142.73 80.3384C142.156 81.5421 141.72 82.8067 141.431 84.1083C141.28 84.0052 141.134 83.8942 140.994 83.776C141.259 82.6392 141.635 81.5311 142.115 80.4673L142.73 80.3384Z" fill="#FAFAFA"/>
</g>
</g>
<g id="character-1">
<path id="Vector_67" d="M87.1233 99.8874H13.6344C13.312 99.8767 12.9914 99.9395 12.6969 100.071C12.4024 100.202 12.1416 100.399 11.9342 100.646C11.7268 100.893 11.5783 101.184 11.4999 101.497C11.4215 101.81 11.4152 102.136 11.4815 102.452L19.83 155.057C19.9571 155.761 20.3223 156.399 20.8642 156.865C21.4061 157.331 22.0918 157.597 22.8062 157.617H96.2853C96.6071 157.627 96.9271 157.565 97.2212 157.434C97.5153 157.303 97.7758 157.106 97.9831 156.86C98.1904 156.613 98.339 156.323 98.4178 156.011C98.4966 155.699 98.5036 155.373 98.4381 155.057L90.0897 102.452C89.9647 101.749 89.6017 101.11 89.0616 100.643C88.5214 100.176 87.837 99.9094 87.1233 99.8874Z" fill="#0A0A0A"/>
<path id="Vector_68" opacity="0.5" d="M87.1233 99.8874H13.6344C13.312 99.8767 12.9914 99.9395 12.6969 100.071C12.4024 100.202 12.1416 100.399 11.9342 100.646C11.7268 100.893 11.5783 101.184 11.4999 101.497C11.4215 101.81 11.4152 102.136 11.4815 102.452L19.83 155.057C19.9571 155.761 20.3223 156.399 20.8642 156.865C21.4061 157.331 22.0918 157.597 22.8062 157.617H96.2853C96.6071 157.627 96.9271 157.565 97.2212 157.434C97.5153 157.303 97.7758 157.106 97.9831 156.86C98.1904 156.613 98.339 156.323 98.4178 156.011C98.4966 155.699 98.5036 155.373 98.4381 155.057L90.0897 102.452C89.9647 101.749 89.6017 101.11 89.0616 100.643C88.5214 100.176 87.837 99.9094 87.1233 99.8874Z" fill="#FAFAFA"/>
<path id="Vector_69" d="M87.6194 99.8874H14.1305C13.8081 99.8767 13.4875 99.9395 13.193 100.071C12.8985 100.202 12.6377 100.399 12.4303 100.646C12.2229 100.893 12.0744 101.184 11.996 101.497C11.9176 101.81 11.9113 102.136 11.9776 102.452L20.326 155.057C20.4532 155.761 20.8184 156.399 21.3603 156.865C21.9022 157.331 22.5879 157.597 23.3023 157.617H96.7813C97.1032 157.627 97.4232 157.565 97.7173 157.434C98.0114 157.303 98.2719 157.106 98.4792 156.86C98.6865 156.613 98.8351 156.323 98.9139 156.011C98.9927 155.699 98.9996 155.373 98.9342 155.057L90.5858 102.452C90.4608 101.749 90.0978 101.11 89.5576 100.643C89.0175 100.176 88.3331 99.9094 87.6194 99.8874Z" fill="#0A0A0A"/>
<path id="Vector_70" d="M97.1734 153.445H21.5763L21.0505 150.117L20.4056 146.059L20.0286 143.698L19.5326 140.623L18.4711 133.926L18.3024 132.855L17.6575 128.797L17.2855 126.436L15.5692 115.627L14.9194 111.535L14.5176 108.995L13.4412 102.209C13.4168 102.102 13.4161 101.991 13.4392 101.884C13.4624 101.777 13.5088 101.676 13.5751 101.589C13.6448 101.515 13.7298 101.458 13.8241 101.421C13.9184 101.384 14.0197 101.369 14.1207 101.376H87.6246C87.9814 101.397 88.321 101.537 88.5902 101.772C88.8595 102.007 89.0432 102.325 89.1127 102.675L97.1734 153.445Z" fill="#C85C8E"/>
<path id="Vector_71" opacity="0.7" d="M97.1734 153.445H21.5763L21.0505 150.117L20.4056 146.059L20.0286 143.698L19.5326 140.623L18.4711 133.926L18.3024 132.855L17.6575 128.797L17.2855 126.436L15.5692 115.627L14.9194 111.535L14.5176 108.995L13.4412 102.209C13.4168 102.102 13.4161 101.991 13.4392 101.884C13.4624 101.777 13.5088 101.676 13.5751 101.589C13.6448 101.515 13.7298 101.458 13.8241 101.421C13.9184 101.384 14.0197 101.369 14.1207 101.376H87.6246C87.9814 101.397 88.321 101.537 88.5902 101.772C88.8595 102.007 89.0432 102.325 89.1127 102.675L97.1734 153.445Z" fill="#FAFAFA"/>
<path id="Vector_72" opacity="0.2" d="M65.0698 108.995V153.445H21.5766L21.0508 150.117L20.406 146.059L20.029 143.698L19.5428 140.622L18.4813 133.926L18.3126 132.854L17.6678 128.797L17.2958 126.436L15.5794 115.627L14.9296 111.534L14.5278 108.995H65.0698Z" fill="#FAFAFA"/>
<path id="Vector_73" opacity="0.2" d="M63.1249 111.534V126.435H17.2953L15.579 115.627L14.9292 111.534H63.1249Z" fill="black"/>
<path id="Vector_74" opacity="0.2" d="M63.1255 128.796V143.698H20.0291L19.543 140.622L18.4815 133.925L18.3128 132.854L17.668 128.796H63.1255Z" fill="black"/>
<path id="Vector_75" opacity="0.2" d="M63.1251 146.059V153.445H21.5764L21.0506 150.117L20.4058 146.059H63.1251Z" fill="black"/>
<g id="Group_10" opacity="0.2">
<path id="Vector_76" d="M28.9322 113.945H26.0254V126.436H28.9322V113.945Z" fill="#FAFAFA"/>
<path id="Vector_77" d="M44.8826 113.632L42.0181 114.126L44.1398 126.435L47.0043 125.941L44.8826 113.632Z" fill="#FAFAFA"/>
<path id="Vector_78" d="M18.481 115.592V126.436H17.2954L15.5791 115.627V115.592H18.481Z" fill="#FAFAFA"/>
<path id="Vector_79" d="M25.1627 115.592H22.2559V126.436H25.1627V115.592Z" fill="#FAFAFA"/>
<path id="Vector_80" d="M42.0181 115.592H39.1113V126.436H42.0181V115.592Z" fill="#FAFAFA"/>
<path id="Vector_81" d="M32.7541 115.216L29.9165 115.846L32.269 126.431L35.1066 125.801L32.7541 115.216Z" fill="#FAFAFA"/>
<path id="Vector_82" d="M20.9959 113.325H19.5425V126.436H20.9959V113.325Z" fill="#FAFAFA"/>
<path id="Vector_83" d="M38.2776 113.325H36.8242V126.436H38.2776V113.325Z" fill="#FAFAFA"/>
<path id="Vector_84" d="M60.2128 143.698H63.1196V131.207H60.2128V143.698Z" fill="#FAFAFA"/>
<path id="Vector_85" d="M46.1654 143.698H49.0723V131.207H46.1654V143.698Z" fill="#FAFAFA"/>
<path id="Vector_86" d="M28.1017 143.203L30.9663 143.696L33.088 131.387L30.2234 130.894L28.1017 143.203Z" fill="#FAFAFA"/>
<path id="Vector_87" d="M56.6166 143.698H59.5234V132.854H56.6166V143.698Z" fill="#FAFAFA"/>
<path id="Vector_88" d="M49.935 143.698H52.8418V132.854H49.935V143.698Z" fill="#FAFAFA"/>
<path id="Vector_89" d="M33.0844 143.698H35.9912V132.854H33.0844V143.698Z" fill="#FAFAFA"/>
<path id="Vector_90" d="M40.0086 143.066L42.8462 143.696L45.1987 133.111L42.3611 132.48L40.0086 143.066Z" fill="#FAFAFA"/>
<path id="Vector_91" d="M54.1071 143.698H55.5605V130.587H54.1071V143.698Z" fill="#FAFAFA"/>
<path id="Vector_92" d="M36.8195 143.698H38.2729V130.587H36.8195V143.698Z" fill="#FAFAFA"/>
<path id="Vector_93" d="M25.1627 132.854H22.2559V143.698H25.1627V132.854Z" fill="#FAFAFA"/>
<path id="Vector_94" d="M20.9959 130.587V143.698H20.0286L19.5425 140.622V130.587H20.9959Z" fill="#FAFAFA"/>
<path id="Vector_95" d="M44.2403 148.47H41.3335V153.446H44.2403V148.47Z" fill="#FAFAFA"/>
<path id="Vector_96" d="M61.1006 153.446H58.1491L57.3257 148.654L60.1879 148.158L61.1006 153.446Z" fill="#FAFAFA"/>
<path id="Vector_97" d="M33.7891 150.117H30.8872V153.445H33.7891V150.117Z" fill="#FAFAFA"/>
<path id="Vector_98" d="M40.4703 150.117H37.5635V153.445H40.4703V150.117Z" fill="#FAFAFA"/>
<path id="Vector_99" d="M57.3263 150.117H54.4194V153.445H57.3263V150.117Z" fill="#FAFAFA"/>
<path id="Vector_100" d="M48.8786 153.445H45.9023L45.2178 150.375L48.0551 149.745L48.8786 153.445Z" fill="#FAFAFA"/>
<path id="Vector_101" d="M36.3035 147.85H34.8501V153.445H36.3035V147.85Z" fill="#FAFAFA"/>
<path id="Vector_102" d="M53.5862 147.85H52.1328V153.445H53.5862V147.85Z" fill="#FAFAFA"/>
<path id="Vector_103" d="M27.6724 153.446H24.7259L23.8975 148.654L26.7596 148.158L27.6724 153.446Z" fill="#FAFAFA"/>
<path id="Vector_104" d="M23.8976 150.117V153.445H21.5761L21.0503 150.117H23.8976Z" fill="#FAFAFA"/>
</g>
<path id="Vector_105" d="M65.1883 118.822L65.5852 119.164L66.0366 119.536L66.9642 120.29C67.5892 120.786 68.234 121.282 68.8888 121.728C70.1817 122.648 71.5229 123.497 72.9068 124.273C73.5913 124.66 74.2808 125.007 74.9753 125.325C75.6697 125.642 76.3692 125.94 77.0686 126.183C77.7543 126.429 78.4551 126.632 79.1669 126.788C79.8433 126.947 80.5319 127.05 81.2254 127.096L81.7215 127.125C81.7215 127.125 81.7215 127.125 81.7215 127.15C81.7215 127.175 81.7215 127.185 81.8306 127.15C82.1918 126.931 82.4934 126.626 82.7086 126.262C83.4535 125.007 84.021 123.655 84.3952 122.244C85.2748 119.038 85.9213 115.772 86.3297 112.472H89.8368C90.0229 114.275 90.1008 116.087 90.0699 117.899C90.0498 119.74 89.9056 121.578 89.6384 123.4C89.4871 124.354 89.2868 125.299 89.0381 126.232C88.7683 127.261 88.3926 128.258 87.9171 129.209C87.3404 130.396 86.5047 131.438 85.4716 132.259C84.8023 132.766 84.0407 133.136 83.2295 133.351C82.8126 133.462 82.3854 133.53 81.9546 133.554H81.7215H81.5231H81.1262C79.0697 133.564 77.0233 133.266 75.0547 132.671C73.1866 132.125 71.3759 131.399 69.6478 130.503C67.9656 129.646 66.3476 128.668 64.8064 127.577C64.0375 127.041 63.2934 126.48 62.5593 125.895C62.1922 125.602 61.8301 125.31 61.473 125.002L60.9323 124.506L60.3618 123.975L65.1883 118.822Z" fill="#CE7A63"/>
<path id="Vector_106" d="M77.1383 124.338L73.666 132.869C73.666 132.869 73.2642 132.75 72.5846 132.527C72.0885 132.364 71.4387 132.145 70.6798 131.882C66.4187 130.394 59.5337 127.105 57.8868 124.442C55.4314 120.473 59.2063 117.398 66.3195 118.658C69.3851 119.203 72.1977 121.485 74.3108 122.671C75.0053 123.063 75.6055 123.415 76.0718 123.688C76.7563 124.094 77.1383 124.338 77.1383 124.338Z" fill="#0A0A0A"/>
<path id="Vector_107" opacity="0.3" d="M58.1401 124.937C58.9983 123.132 61.5182 124.938 65.5808 125.29C67.3963 125.448 73.7804 129.754 74.3509 131.242L73.6862 132.884C73.6862 132.884 60.5162 128.921 58.1401 124.937Z" fill="black"/>
<path id="Vector_108" d="M88.6864 114.491L93.2649 111.668L89.2717 108.404C89.2717 108.404 85.4026 111.738 86.1863 113.132L88.6864 114.491Z" fill="#CE7A63"/>
<path id="Vector_109" d="M94.0836 106.926L90.7155 105.364L89.272 108.385L93.2651 111.668L94.0836 106.926Z" fill="#CE7A63"/>
<path id="Vector_110" d="M43.8239 142.2C44.4192 146.471 44.7714 150.32 45.0194 153.445H70.7492C71.3643 130.23 64.8513 118.429 64.8513 118.429C64.8513 118.429 63.8592 118.241 62.2222 118.072C60.9375 117.948 59.3253 117.834 57.6884 117.839C54.1515 117.975 50.6254 118.314 47.1276 118.856C45.2922 119.119 43.4321 119.526 41.9588 119.888C40.178 120.324 38.9429 120.706 38.9429 120.706C39.1115 121.202 39.2703 121.698 39.4389 122.169C41.4792 128.706 42.9464 135.408 43.8239 142.2Z" fill="#0A0A0A"/>
<path id="Vector_111" opacity="0.3" d="M43.8241 142.2C42.9341 135.407 41.4553 128.705 39.4043 122.169C41.0512 121.867 43.9084 121.758 44.6376 124.392C45.4213 127.254 45.4362 134.069 43.8241 142.2Z" fill="black"/>
<path id="Vector_112" d="M44.0721 127.016C43.7944 127.601 43.4819 128.301 43.1892 128.956C42.8965 129.61 42.5989 130.29 42.3162 130.965C41.7507 132.309 41.1951 133.658 40.6941 135.017C39.6682 137.669 38.8522 140.397 38.2535 143.177L38.065 144.169C38.0676 144.025 38.0492 143.881 38.0105 143.743C37.9552 143.518 37.8557 143.308 37.7178 143.123C37.6216 142.991 37.5002 142.88 37.3607 142.795C37.2863 142.746 37.2317 142.746 37.2466 142.76C37.3622 142.846 37.4966 142.902 37.6385 142.924C38.1987 143.054 38.7702 143.128 39.3448 143.147C39.9947 143.187 40.6891 143.182 41.3935 143.147C44.221 143.058 47.2369 142.651 50.1784 142.314L51.1408 145.687C49.6818 146.311 48.1917 146.859 46.6764 147.329C45.1423 147.814 43.5823 148.213 42.0036 148.524C41.1951 148.668 40.3667 148.797 39.4887 148.877C38.5406 148.978 37.5845 148.978 36.6364 148.877C36.015 148.807 35.4049 148.659 34.8209 148.435C34.4295 148.285 34.0566 148.09 33.7098 147.855C33.2612 147.545 32.8687 147.161 32.549 146.719C32.1937 146.22 31.9408 145.655 31.805 145.057C31.6913 144.543 31.6578 144.014 31.7058 143.49L31.8347 142.215C31.8744 141.793 31.9389 141.381 32.0034 140.97C32.0679 140.558 32.1175 140.146 32.2018 139.744C32.3655 138.941 32.5193 138.127 32.6979 137.344C33.0649 135.756 33.5362 134.219 34.0322 132.696C34.5283 131.173 35.0987 129.685 35.7039 128.231C36.0114 127.492 36.3239 126.743 36.6612 126.039C36.9986 125.334 37.3309 124.62 37.7377 123.841L44.0721 127.016Z" fill="#CE7A63"/>
<path id="Vector_113" d="M45.8973 128.573C45.0501 131.904 44.0083 135.182 42.7772 138.39C42.5093 139.114 42.2811 139.754 42.0579 140.275C41.7057 141.188 41.4775 141.763 41.4775 141.763L31.5566 137.453C31.5566 137.453 31.636 137.046 31.7848 136.361C31.8989 135.865 32.0477 135.166 32.2412 134.377C33.3771 129.759 35.8127 121.48 38.908 120.721C43.546 119.57 47.2614 122.755 45.8973 128.573Z" fill="#0A0A0A"/>
<path id="Vector_114" d="M46.1855 106.985L49.2412 109.059L53.3931 111.886C53.3301 112.41 53.2987 112.936 53.2988 113.464C53.2988 115.572 54.0181 117.432 57.1581 117.849C57.1581 117.849 61.0322 119.912 55.6699 120.865C55.7102 121.453 55.6769 122.045 55.5707 122.626C55.0304 122.019 54.3851 121.515 53.6659 121.137C47.7431 121.604 46.7213 118.94 46.7213 118.94C48.7799 116.43 47.2967 110.314 46.1855 106.985Z" fill="#CE7A63"/>
<path id="Vector_115" opacity="0.2" d="M53.3926 111.877C53.3297 112.4 53.2982 112.927 53.2984 113.454C51.8102 113.305 49.7715 111.966 49.4292 110.513C49.3104 110.034 49.2471 109.543 49.2407 109.049L53.3926 111.877Z" fill="black"/>
<path id="Vector_116" d="M54.3302 94.2224C56.7211 95.0359 58.616 101.365 55.8183 103.032C53.0206 104.699 49.8013 92.6747 54.3302 94.2224Z" fill="#0A0A0A"/>
<path id="Vector_117" d="M44.5483 102.204C45.967 106.628 46.5721 109.282 49.4393 111.088C50.3645 111.684 51.4354 112.017 52.5359 112.049C53.6364 112.081 54.7247 111.811 55.683 111.269C56.6414 110.727 57.4333 109.933 57.973 108.974C58.5127 108.014 58.7797 106.925 58.7451 105.825C58.6905 101.583 56.3839 95.0605 51.5078 94.242C50.4564 94.035 49.3691 94.1082 48.355 94.4545C47.3409 94.8007 46.4358 95.4077 45.7306 96.2145C45.0253 97.0212 44.5448 97.9994 44.3373 99.0506C44.1298 100.102 44.2025 101.189 44.5483 102.204Z" fill="#CE7A63"/>
<path id="Vector_118" d="M48.2932 96.2562L47.6186 92.3325C46.6709 92.9045 45.5669 93.1632 44.4638 93.0716C39.6819 92.4664 36.4279 95.8396 38.8733 98.2255C36.7751 99.4111 38.3079 102.303 39.9845 104.069C42.3159 106.524 44.6275 107.541 46.0065 106.187C47.2863 105.383 46.9986 100.701 46.3835 99.0242C45.436 96.4993 48.2932 96.2562 48.2932 96.2562Z" fill="#0A0A0A"/>
<path id="Vector_119" d="M43.9625 107.02C44.7765 107.834 45.8479 108.339 46.9933 108.449C48.4418 108.553 48.6352 107.204 47.787 105.999C47.028 104.912 45.3564 103.553 44.1163 104.014C42.8761 104.476 42.9307 105.999 43.9625 107.02Z" fill="#CE7A63"/>
<path id="Vector_120" d="M51.7207 101.956C51.815 102.323 52.0829 102.576 52.3259 102.521C52.569 102.467 52.6831 102.134 52.5938 101.767C52.5045 101.4 52.2317 101.147 51.9886 101.202C51.7456 101.256 51.6265 101.604 51.7207 101.956Z" fill="#0A0A0A"/>
<path id="Vector_121" d="M55.8779 101.063C55.9721 101.425 56.245 101.683 56.4831 101.628C56.7212 101.574 56.8452 101.237 56.7509 100.874C56.6567 100.512 56.3888 100.254 56.1458 100.304C55.9027 100.354 55.7886 100.696 55.8779 101.063Z" fill="#0A0A0A"/>
<path id="Vector_122" d="M54.603 101.529C55.3292 102.553 56.1883 103.475 57.1577 104.272C56.6616 105.016 55.481 104.982 55.481 104.982L54.603 101.529Z" fill="#BA4D3C"/>
<path id="Vector_123" d="M50.0988 100.914C50.0631 100.924 50.0254 100.924 49.9897 100.914C49.9359 100.89 49.8935 100.846 49.8713 100.792C49.8491 100.737 49.8489 100.676 49.8706 100.621C50.005 100.3 50.2157 100.015 50.4844 99.7933C50.7532 99.5712 51.072 99.4178 51.4133 99.3465C51.442 99.3423 51.4713 99.3439 51.4994 99.3512C51.5274 99.3584 51.5538 99.3712 51.5769 99.3887C51.6 99.4063 51.6193 99.4283 51.6338 99.4534C51.6484 99.4785 51.6577 99.5062 51.6614 99.535C51.6663 99.5634 51.6654 99.5926 51.6587 99.6206C51.6521 99.6487 51.6398 99.6751 51.6226 99.6983C51.6055 99.7215 51.5838 99.7409 51.5589 99.7555C51.534 99.7701 51.5064 99.7794 51.4778 99.783C51.2106 99.8434 50.962 99.9674 50.753 100.144C50.544 100.321 50.3809 100.546 50.2774 100.8C50.2601 100.833 50.2346 100.861 50.2033 100.881C50.1719 100.901 50.1359 100.912 50.0988 100.914Z" fill="#0A0A0A"/>
<path id="Vector_124" d="M57.3065 99.2525C57.2702 99.2565 57.2335 99.2513 57.1997 99.2374C57.1659 99.2236 57.1361 99.2015 57.1131 99.1731C56.936 98.9491 56.7096 98.769 56.4514 98.6468C56.1933 98.5246 55.9105 98.4637 55.625 98.4687C55.566 98.4729 55.5077 98.454 55.4624 98.4161C55.417 98.3782 55.3882 98.3241 55.3819 98.2653C55.3778 98.2069 55.3968 98.1492 55.4348 98.1046C55.4729 98.0601 55.5269 98.0323 55.5853 98.0272C55.9395 98.0175 56.2912 98.0905 56.6123 98.2403C56.9335 98.3901 57.2153 98.6127 57.4355 98.8903C57.4727 98.9359 57.4904 98.9942 57.4849 99.0527C57.4793 99.1112 57.4509 99.1652 57.4058 99.2029C57.3786 99.2292 57.3439 99.2465 57.3065 99.2525Z" fill="#0A0A0A"/>
<path id="Vector_125" d="M51.0764 145.732L55.7938 145.796L52.5893 140.86C52.5893 140.86 48.4077 141.555 48.9434 143.683L51.0764 145.732Z" fill="#CE7A63"/>
<path id="Vector_126" d="M58.7894 142.582L55.952 138.633L52.5889 140.861L55.7933 145.796L58.7894 142.582Z" fill="#CE7A63"/>
<path id="Vector_127" d="M44.2354 93.6025C44.2354 93.6025 47.2116 87.1291 53.3923 88.146C52.8035 88.2987 52.2495 88.5631 51.7603 88.9248C51.7603 88.9248 57.068 88.2254 58.8984 91.901L57.8518 91.3504C57.8518 91.3504 59.3399 94.3912 57.8518 96.5043L57.5045 95.5122C57.5045 95.5122 55.446 98.3149 52.1572 97.6948L53.2534 97.0698C53.2534 97.0698 47.6432 97.1492 46.1848 95.7851C45.4564 95.1317 44.8026 94.3997 44.2354 93.6025Z" fill="#0A0A0A"/>
<path id="Vector_128" opacity="0.4" d="M65.2828 127.026C65.1656 127.025 65.0501 127.054 64.9464 127.108C64.8427 127.163 64.7538 127.242 64.6875 127.338L62.2867 126.743C62.2714 126.605 62.2164 126.474 62.1284 126.367C62.0404 126.259 61.9232 126.18 61.7909 126.137C61.6586 126.095 61.5169 126.092 61.3829 126.128C61.2489 126.165 61.1283 126.239 61.0357 126.343C60.9431 126.446 60.8825 126.574 60.8611 126.712C60.8397 126.849 60.8586 126.989 60.9153 127.116C60.9721 127.243 61.0643 127.351 61.1809 127.426C61.2975 127.502 61.4335 127.542 61.5724 127.542C61.6901 127.542 61.8062 127.514 61.9102 127.458C62.0141 127.403 62.1026 127.322 62.1676 127.224L64.5685 127.819C64.5731 127.867 64.5831 127.913 64.5982 127.958L63.2589 129C63.1446 128.927 63.0124 128.888 62.877 128.886C62.7347 128.886 62.5956 128.928 62.4774 129.007C62.3591 129.086 62.2669 129.198 62.2125 129.33C62.158 129.461 62.1438 129.606 62.1715 129.745C62.1993 129.885 62.2678 130.013 62.3684 130.114C62.469 130.214 62.5971 130.283 62.7366 130.311C62.8762 130.338 63.0208 130.324 63.1522 130.27C63.2836 130.215 63.396 130.123 63.475 130.005C63.554 129.886 63.5962 129.747 63.5962 129.605C63.5948 129.533 63.5831 129.461 63.5615 129.392L64.9008 128.35C64.9951 128.411 65.1022 128.448 65.2136 128.46C65.3251 128.472 65.4377 128.458 65.5426 128.418C65.6475 128.379 65.7417 128.315 65.8177 128.233C65.8938 128.151 65.9496 128.052 65.9806 127.944C66.0116 127.837 66.0171 127.723 65.9966 127.613C65.976 127.503 65.93 127.399 65.8622 127.31C65.7945 127.221 65.7068 127.148 65.6062 127.099C65.5056 127.05 65.3948 127.025 65.2828 127.026Z" fill="#FAFAFA"/>
<path id="Vector_129" d="M56.4583 106.197C56.4583 106.197 54.9702 105.85 50.7588 105.85C51.2548 107.115 52.1725 108.146 54.3253 108.126C54.5945 108.151 54.8659 108.12 55.1224 108.034C55.3788 107.949 55.6147 107.811 55.8151 107.63C56.0156 107.448 56.1763 107.227 56.287 106.981C56.3977 106.734 56.456 106.467 56.4583 106.197Z" fill="#0A0A0A"/>
<path id="Vector_130" d="M53.3232 107.129C54.1507 107.081 54.9723 107.296 55.6695 107.744C55.2714 108.007 54.8016 108.138 54.3252 108.121C53.4996 108.173 52.6792 107.959 51.9839 107.511C52.3788 107.246 52.8476 107.112 53.3232 107.129Z" fill="#A02724"/>
<path id="Vector_131" d="M56.2694 106.157C56.2282 106.313 56.1448 106.454 56.0284 106.565C55.9119 106.676 55.767 106.753 55.6097 106.787C54.3629 106.784 53.1185 106.678 51.8893 106.47C51.6921 106.454 51.502 106.389 51.3364 106.281C51.1709 106.172 51.0352 106.024 50.9419 105.85C52.723 105.817 54.5039 105.92 56.2694 106.157Z" fill="#FAFAFA"/>
<path id="Vector_132" d="M106.588 162.374H26.6061C25.6032 162.374 24.6412 161.976 23.9316 161.267C23.2219 160.559 22.8226 159.597 22.8213 158.594V156.675C22.8213 156.537 22.8484 156.401 22.9011 156.275C22.9537 156.148 23.0309 156.033 23.1281 155.936C23.2254 155.839 23.3408 155.763 23.4678 155.711C23.5947 155.659 23.7307 155.632 23.8679 155.633H140.354C140.63 155.633 140.895 155.743 141.091 155.938C141.286 156.133 141.396 156.398 141.396 156.675C141.396 156.926 141.305 157.17 141.14 157.36C140.975 157.551 140.747 157.675 140.498 157.711L106.732 162.364C106.685 162.372 106.636 162.376 106.588 162.374Z" fill="#0A0A0A"/>
<path id="Vector_133" opacity="0.5" d="M141.401 156.675C141.4 156.872 141.343 157.066 141.237 157.233C141.131 157.399 140.98 157.533 140.801 157.617C140.705 157.664 140.603 157.696 140.498 157.711L106.733 162.364C106.685 162.369 106.637 162.369 106.589 162.364H26.6065C25.604 162.364 24.6426 161.966 23.9338 161.257C23.2249 160.548 22.8267 159.587 22.8267 158.584V156.665C22.8267 156.388 22.9364 156.124 23.1318 155.928C23.3271 155.733 23.5921 155.623 23.8684 155.623H140.354C140.492 155.623 140.629 155.65 140.756 155.703C140.883 155.756 140.999 155.834 141.096 155.931C141.194 156.029 141.271 156.145 141.323 156.273C141.375 156.4 141.402 156.537 141.401 156.675Z" fill="#FAFAFA"/>
<path id="Vector_134" opacity="0.2" d="M45.5352 162.374H26.6061C25.6032 162.374 24.6412 161.976 23.9316 161.267C23.2219 160.559 22.8226 159.597 22.8213 158.594V156.675C22.8213 156.537 22.8484 156.401 22.9011 156.275C22.9537 156.148 23.0309 156.033 23.1281 155.936C23.2254 155.839 23.3408 155.763 23.4678 155.711C23.5947 155.659 23.7307 155.632 23.8679 155.633H79.3009C79.5776 155.633 79.8431 155.742 80.0392 155.938C80.2354 156.133 80.3462 156.398 80.3475 156.675C80.3465 156.927 80.2547 157.171 80.089 157.361C79.9233 157.551 79.6946 157.676 79.4447 157.711L45.679 162.364C45.6315 162.373 45.5833 162.376 45.5352 162.374Z" fill="#FAFAFA"/>
<path id="Vector_135" opacity="0.2" d="M28.5157 158.118H26.4472C26.3103 158.118 26.1992 158.229 26.1992 158.366V159.641C26.1992 159.778 26.3103 159.889 26.4472 159.889H28.5157C28.6527 159.889 28.7638 159.778 28.7638 159.641V158.366C28.7638 158.229 28.6527 158.118 28.5157 158.118Z" fill="black"/>
<path id="Vector_136" opacity="0.2" d="M28.5159 158.118H27.251C27.114 158.118 27.0029 158.229 27.0029 158.366V159.641C27.0029 159.778 27.114 159.889 27.251 159.889H28.5159C28.6528 159.889 28.7639 159.778 28.7639 159.641V158.366C28.7639 158.229 28.6528 158.118 28.5159 158.118Z" fill="black"/>
<path id="Vector_137" opacity="0.2" d="M33.0006 158.118H30.9321C30.7951 158.118 30.6841 158.229 30.6841 158.366V159.145C30.6841 159.282 30.7951 159.393 30.9321 159.393H33.0006C33.1376 159.393 33.2486 159.282 33.2486 159.145V158.366C33.2486 158.229 33.1376 158.118 33.0006 158.118Z" fill="black"/>
<path id="Vector_138" opacity="0.2" d="M32.9954 158.118H31.7304C31.5935 158.118 31.4824 158.229 31.4824 158.366V159.145C31.4824 159.282 31.5935 159.393 31.7304 159.393H32.9954C33.1323 159.393 33.2434 159.282 33.2434 159.145V158.366C33.2434 158.229 33.1323 158.118 32.9954 158.118Z" fill="black"/>
<path id="Vector_139" opacity="0.2" d="M36.4972 158.118H34.4287C34.2917 158.118 34.1807 158.229 34.1807 158.366V159.145C34.1807 159.282 34.2917 159.393 34.4287 159.393H36.4972C36.6342 159.393 36.7452 159.282 36.7452 159.145V158.366C36.7452 158.229 36.6342 158.118 36.4972 158.118Z" fill="black"/>
<path id="Vector_140" opacity="0.2" d="M36.4973 158.118H35.2324C35.0954 158.118 34.9844 158.229 34.9844 158.366V159.145C34.9844 159.282 35.0954 159.393 35.2324 159.393H36.4973C36.6343 159.393 36.7453 159.282 36.7453 159.145V158.366C36.7453 158.229 36.6343 158.118 36.4973 158.118Z" fill="black"/>
<path id="Vector_141" opacity="0.4" d="M141.401 156.675C141.4 156.872 141.343 157.066 141.237 157.233C141.131 157.399 140.979 157.533 140.8 157.617H79.7325C79.9466 157.516 80.1199 157.346 80.2241 157.133C80.3283 156.921 80.357 156.679 80.3057 156.448C80.2543 156.217 80.1258 156.011 79.9414 155.863C79.757 155.714 79.5276 155.633 79.291 155.633H140.354C140.631 155.633 140.896 155.742 141.092 155.938C141.289 156.133 141.399 156.398 141.401 156.675Z" fill="#FAFAFA"/>
</g>
</g>
</svg>
