<svg width="34" height="26" viewBox="0 0 34 26" fill="none" xmlns="http://www.w3.org/2000/svg">
<g id="material-symbols:format-quote" clip-path="url(#clip0_643_3687)">
<path id="Vector" d="M29.6978 0.980583L25.3054 8.9934C27.4061 8.9934 29.2045 9.77799 30.7004 11.3472C32.1964 12.9163 32.9443 14.8027 32.9443 17.0062C32.9443 19.2097 32.1964 21.0961 30.7004 22.6653C29.2045 24.2345 27.4061 25.019 25.3054 25.019C23.2048 25.019 21.4064 24.2345 19.9105 22.6653C18.4145 21.0961 17.6666 19.2097 17.6666 17.0062C17.6666 16.2383 17.7544 15.5285 17.9301 14.8768C18.1058 14.2251 18.3681 13.5994 18.7169 12.9998L25.3054 0.980583H29.6978ZM12.5103 0.980583L8.11795 8.9934C10.2186 8.9934 12.017 9.77799 13.5129 11.3472C15.0089 12.9163 15.7568 14.8027 15.7568 17.0062C15.7568 19.2097 15.0089 21.0961 13.5129 22.6653C12.017 24.2345 10.2186 25.019 8.11795 25.019C6.01725 25.019 4.21893 24.2345 2.72298 22.6653C1.22703 21.0961 0.479061 19.2097 0.479061 17.0062C0.479061 16.2383 0.56691 15.5285 0.742603 14.8768C0.918297 14.2251 1.18056 13.5994 1.52941 12.9998L8.11795 0.980583H12.5103Z" fill="#7B2869"/>
</g>
<defs>
<clipPath id="clip0_643_3687">
<rect width="33" height="25" fill="white" transform="matrix(-1 0 0 -1 33.25 25.5)"/>
</clipPath>
</defs>
</svg>
