<svg width="31" height="30" viewBox="0 0 31 30" fill="none" xmlns="http://www.w3.org/2000/svg">
<g id="Group">
<path id="Vector" d="M10.5538 9.1749L2.57882 10.3312L2.43757 10.3599C2.22375 10.4167 2.02882 10.5292 1.87269 10.6859C1.71656 10.8426 1.60483 11.038 1.5489 11.2521C1.49297 11.4661 1.49486 11.6912 1.55436 11.9042C1.61386 12.1173 1.72884 12.3108 1.88757 12.4649L7.66507 18.0887L6.30257 26.0324L6.28632 26.1699C6.27323 26.3911 6.31916 26.6117 6.41939 26.8093C6.51962 27.0069 6.67055 27.1742 6.85674 27.2943C7.04293 27.4144 7.25768 27.4828 7.47901 27.4925C7.70033 27.5023 7.92028 27.4531 8.11632 27.3499L15.2488 23.5999L22.3651 27.3499L22.4901 27.4074C22.6964 27.4887 22.9206 27.5136 23.1398 27.4796C23.3589 27.4456 23.565 27.3539 23.7371 27.214C23.9091 27.074 24.0408 26.8908 24.1186 26.6832C24.1965 26.4756 24.2177 26.2509 24.1801 26.0324L22.8163 18.0887L28.5963 12.4637L28.6938 12.3574C28.8331 12.1859 28.9244 11.9805 28.9585 11.7621C28.9925 11.5438 28.9681 11.3204 28.8877 11.1146C28.8073 10.9088 28.6737 10.7279 28.5007 10.5905C28.3276 10.4531 28.1213 10.3641 27.9026 10.3324L19.9276 9.1749L16.3626 1.9499C16.2594 1.74057 16.0997 1.5643 15.9016 1.44103C15.7034 1.31777 15.4747 1.25244 15.2413 1.25244C15.008 1.25244 14.7792 1.31777 14.5811 1.44103C14.3829 1.5643 14.2232 1.74057 14.1201 1.9499L10.5538 9.1749Z" fill="#E2BF46"/>
</g>
</svg>
