<svg width="31" height="30" viewBox="0 0 31 30" fill="none" xmlns="http://www.w3.org/2000/svg">
<g id="Group">
<path id="Vector" d="M15.2498 1.24995C15.4535 1.25072 15.6539 1.30165 15.8334 1.39822C16.0128 1.49479 16.1657 1.63405 16.2785 1.8037L16.3623 1.9487L19.9273 9.17495L27.9023 10.3312C28.8285 10.4662 29.2523 11.5062 28.781 12.2387L28.6935 12.3574L28.596 12.4649L22.816 18.0887L24.1785 26.0324C24.214 26.2397 24.1967 26.4525 24.1282 26.6512C24.0598 26.85 23.9423 27.0283 23.7867 27.1697C23.6311 27.3111 23.4424 27.411 23.238 27.4602C23.0336 27.5094 22.8201 27.5063 22.6173 27.4512L22.491 27.4074L22.3648 27.3499L15.2485 23.5999L8.11601 27.3499C7.98476 27.4187 7.85101 27.4624 7.71601 27.4824L7.58351 27.4949C7.40905 27.5013 7.23519 27.4712 7.07304 27.4065C6.9109 27.3418 6.76405 27.244 6.64191 27.1192C6.51976 26.9945 6.42502 26.8456 6.36373 26.6822C6.30245 26.5187 6.27598 26.3442 6.28601 26.1699L6.30226 26.0324L7.66476 18.0887L1.88601 12.4637C1.73658 12.3181 1.62591 12.1375 1.56406 11.9383C1.50222 11.7391 1.49117 11.5276 1.53191 11.323C1.57265 11.1184 1.6639 10.9272 1.79735 10.7669C1.9308 10.6066 2.10222 10.4821 2.29601 10.4049L2.43726 10.3599L2.57976 10.3312L10.5535 9.17495L14.1198 1.94995C14.2192 1.73571 14.3792 1.55527 14.58 1.43088C14.7808 1.3065 15.0136 1.2436 15.2498 1.24995ZM15.2498 5.34245V20.9374C15.3504 20.9375 15.4508 20.9496 15.5485 20.9737L15.6923 21.0187L15.8323 21.0812L21.286 23.9549L20.241 17.8637C20.1895 17.5627 20.25 17.2532 20.411 16.9937L20.4985 16.8699L20.601 16.7574L25.0335 12.4412L18.9198 11.5562C18.6176 11.5123 18.3419 11.3594 18.1448 11.1262L18.0535 11.0049L17.9785 10.8724L15.2498 5.34245Z" fill="#E2BF46"/>
</g>
</svg>
